<svg width="1600" height="809" viewBox="0 0 1600 809" fill="none" xmlns="http://www.w3.org/2000/svg">
<path d="M1696.93 103.029L1708.06 224.387L1708.02 224.437L1720.55 361.045L1720.6 361.087L1731.7 482.495L-152.169 639.28L-187.033 259.822L1696.93 103.029Z" fill="#FFC562"/>
<path d="M1912.25 626.365C1912.86 624.468 1913.08 622.468 1912.91 620.478L1875.15 210.435C1874.98 208.441 1874.41 206.497 1873.48 204.715C1872.56 202.934 1871.29 201.35 1869.75 200.054L1720.56 74.8657C1717.43 72.2535 1713.4 70.9752 1709.35 71.3092L-205.042 230.634C-207.044 230.791 -208.991 231.344 -210.771 232.258C-212.552 233.173 -214.13 234.433 -215.415 235.964C-216.7 237.495 -217.666 239.268 -218.258 241.18C-218.85 243.093 -219.055 245.106 -218.863 247.104L-181.292 657.07C-181.186 657.366 -181.096 657.668 -181.024 657.974C-180.811 659.315 -180.411 660.622 -179.835 661.855L-179.198 663.237C-178.344 664.841 -177.191 666.269 -175.801 667.444L-26.5574 792.674C-24.9957 793.996 -23.1875 794.994 -21.2392 795.61C-19.3456 796.2 -17.3601 796.428 -15.3879 796.281L1078.65 705.229L1215.27 693.859L1899 636.956C1902 636.68 1904.85 635.53 1907.19 633.648C1909.52 631.767 1911.25 629.237 1912.16 626.373L1912.25 626.365ZM1765.89 617.347L1649.71 519.866L1743.31 512.077L1859.33 609.432L1765.89 617.347ZM1629 628.832L1512.98 531.477L1606.66 523.681L1722.64 620.993L1629 628.832ZM1492.24 640.168L1376.27 542.855L1469.86 535.066L1585.88 632.421L1492.24 640.168ZM1355.49 651.595L1239.52 554.283L1333.15 546.444L1449.13 643.756L1355.49 651.595ZM1218.87 662.873L1102.84 565.518L1196.49 557.771L1312.46 655.084L1218.87 662.873ZM1082.11 674.209L966.134 576.896L1059.73 569.107L1175.95 666.63L1082.11 674.209ZM945.356 685.636L829.383 588.323L923.167 580.611L1039.14 677.924L945.356 685.636ZM808.496 696.887L692.624 599.659L786.432 591.713L902.405 689.025L808.496 696.887ZM671.737 708.223L555.714 610.868L649.305 603.079L765.328 700.434L671.737 708.223ZM535.011 719.926L418.988 622.571L512.671 614.774L628.644 712.087L535.011 719.926ZM398.302 731.303L282.279 633.949L375.87 626.16L491.893 723.514L398.302 731.303ZM261.501 742.689L145.528 645.376L239.161 637.537L355.184 734.892L261.501 742.689ZM124.791 754.066L8.76849 656.712L102.41 648.965L218.382 746.277L124.791 754.066ZM1763.04 488.866L1754.31 395.218L1870.28 492.531L1878.91 586.095L1763.04 488.866ZM1866.48 449.571L1750.5 352.258L1741.91 258.644L1857.94 355.999L1866.48 449.571ZM1853.98 312.913L1737.96 215.558L1729.38 122.036L1845.35 219.349L1853.98 312.913ZM1696.73 102.861L1707.86 224.219L1720.4 360.827L1731.49 482.235L-152.219 639.238L-187.033 259.822L1696.73 102.861ZM-127.815 667.94L-34.2244 660.151L81.949 757.632L-11.6924 765.379L-127.815 667.94Z" fill="#3946BB"/>
</svg>
