<svg width="127" height="132" viewBox="0 0 127 132" fill="none" xmlns="http://www.w3.org/2000/svg">
<g clip-path="url(#clip0_5_650)">
<path d="M20.7706 53.3307C20.8387 53.1717 20.8575 52.9959 20.8248 52.8255C20.792 52.655 20.709 52.4975 20.5864 52.3729C20.4638 52.2482 20.307 52.162 20.1359 52.1252C19.9647 52.0883 19.7868 52.1025 19.6247 52.1658C19.4625 52.2292 19.3234 52.3389 19.2249 52.4811C19.1264 52.6233 19.0729 52.7916 19.0711 52.9648C19.0694 53.138 19.1194 53.3084 19.2151 53.4543C19.3107 53.6002 19.4475 53.7152 19.6083 53.7847C19.7154 53.831 19.8304 53.856 19.9469 53.8583C20.0633 53.8605 20.1789 53.8399 20.2868 53.7977C20.3948 53.7556 20.4932 53.6926 20.5762 53.6124C20.6592 53.5323 20.7253 53.4365 20.7706 53.3307Z" fill="#FFC562"/>
<path d="M25.2594 50.1366C25.3291 49.9756 25.3488 49.7972 25.3161 49.6241C25.2833 49.4509 25.1996 49.2908 25.0754 49.164C24.9513 49.0372 24.7924 48.9494 24.6187 48.9116C24.445 48.8739 24.2644 48.8879 24.0997 48.9519C23.9351 49.0159 23.7937 49.1271 23.6935 49.2713C23.5934 49.4155 23.5389 49.5863 23.537 49.7621C23.535 49.938 23.5858 50.1109 23.6828 50.259C23.7798 50.4072 23.9187 50.5239 24.0819 50.5944C24.1902 50.6413 24.3067 50.6666 24.4245 50.669C24.5423 50.6713 24.6593 50.6506 24.7686 50.6081C24.878 50.5656 24.9776 50.5021 25.0618 50.4212C25.146 50.3403 25.2132 50.2436 25.2594 50.1366Z" fill="#FFC562"/>
<path d="M28.7501 53.8414C28.8205 53.6804 28.8408 53.5018 28.8084 53.3283C28.7761 53.1548 28.6926 52.9943 28.5685 52.8671C28.4444 52.7399 28.2853 52.6517 28.1114 52.6137C27.9375 52.5757 27.7566 52.5897 27.5917 52.6538C27.4268 52.7179 27.2853 52.8293 27.1851 52.9738C27.0848 53.1183 27.0305 53.2895 27.0289 53.4656C27.0273 53.6417 27.0785 53.8147 27.176 53.9629C27.2735 54.111 27.413 54.2275 27.5767 54.2976C27.7949 54.391 28.0407 54.3955 28.2605 54.31C28.4804 54.2246 28.6564 54.0561 28.7501 53.8414Z" fill="#FFC562"/>
<path d="M24.0351 55.3498C23.8723 55.2801 23.6928 55.2596 23.5192 55.2908C23.3457 55.3221 23.1858 55.4037 23.0598 55.5253C22.9339 55.6469 22.8475 55.8032 22.8115 55.9743C22.7756 56.1454 22.7917 56.3237 22.8578 56.4866C22.924 56.6496 23.0372 56.79 23.1832 56.89C23.3292 56.9899 23.5014 57.0451 23.6781 57.0485C23.8548 57.0519 24.028 57.0033 24.176 56.9089C24.3239 56.8145 24.4399 56.6785 24.5093 56.5181C24.5555 56.4113 24.5799 56.2963 24.581 56.1797C24.5822 56.0631 24.5601 55.9472 24.5161 55.8386C24.472 55.7301 24.4068 55.631 24.3243 55.5472C24.2418 55.4633 24.1435 55.3962 24.0351 55.3498Z" fill="#FFC562"/>
<path d="M19.1537 57.6698C18.9904 57.5992 18.81 57.578 18.6355 57.609C18.4609 57.6399 18.3001 57.7215 18.1733 57.8436C18.0464 57.9656 17.9594 58.1225 17.9231 58.2944C17.8868 58.4664 17.9029 58.6456 17.9694 58.8094C18.0359 58.9732 18.1497 59.1142 18.2965 59.2146C18.4433 59.3149 18.6165 59.3702 18.7941 59.3732C18.9717 59.3763 19.1457 59.3271 19.2942 59.2318C19.4426 59.1366 19.5587 58.9995 19.6279 58.8381C19.7204 58.6222 19.7224 58.3781 19.6335 58.1591C19.5446 57.9401 19.3721 57.7642 19.1537 57.6698Z" fill="#FFC562"/>
<path d="M19.7595 63.0302C19.5963 62.959 19.4158 62.9372 19.2411 62.9676C19.0663 62.998 18.9051 63.0793 18.7779 63.2011C18.6506 63.3229 18.5631 63.4797 18.5264 63.6517C18.4897 63.8236 18.5055 64.003 18.5717 64.167C18.6379 64.3311 18.7517 64.4724 18.8984 64.573C19.0452 64.6737 19.2185 64.7291 19.3962 64.7323C19.5739 64.7356 19.7481 64.6865 19.8967 64.5912C20.0453 64.4959 20.1616 64.3588 20.2308 64.1973C20.323 63.9819 20.3253 63.7383 20.237 63.5197C20.1487 63.3011 19.977 63.1251 19.7595 63.0302Z" fill="#FFC562"/>
<path d="M23.1606 67.1195C22.9979 67.0492 22.8184 67.0281 22.6446 67.0588C22.4708 67.0895 22.3105 67.1707 22.1842 67.2921C22.0578 67.4135 21.9709 67.5696 21.9345 67.7408C21.8982 67.9119 21.9139 68.0904 21.9798 68.2536C22.0457 68.4168 22.1588 68.5574 22.3048 68.6577C22.4508 68.758 22.623 68.8134 22.7999 68.8169C22.9767 68.8204 23.1501 68.7719 23.2982 68.6775C23.4463 68.5831 23.5624 68.4471 23.6319 68.2866C23.678 68.18 23.7024 68.0653 23.7036 67.9489C23.7049 67.8326 23.683 67.7169 23.6393 67.6085C23.5955 67.5002 23.5307 67.4012 23.4486 67.3173C23.3664 67.2334 23.2686 67.1661 23.1606 67.1195Z" fill="#FFC562"/>
<path d="M27.9336 69.6607C27.8242 69.6057 27.7048 69.5734 27.5827 69.5657C27.4607 69.5579 27.3386 69.575 27.2238 69.6158C27.1091 69.6566 27.0043 69.7202 26.9157 69.8029C26.8271 69.8855 26.7566 69.9853 26.7086 70.0963C26.6606 70.2072 26.6361 70.327 26.6366 70.4481C26.637 70.5692 26.6625 70.6892 26.7113 70.8007C26.7602 70.9121 26.8314 71.0128 26.9206 71.0964C27.0099 71.18 27.1152 71.2448 27.2302 71.2868C27.4457 71.3656 27.6825 71.36 27.8924 71.2713C28.1023 71.1826 28.2692 71.0175 28.3591 70.8097C28.449 70.6019 28.455 70.3672 28.3759 70.1536C28.2968 69.94 28.1386 69.7637 27.9336 69.6607Z" fill="#FFC562"/>
<path d="M27.9478 64.1521C27.7847 64.0809 27.6044 64.0592 27.4297 64.0895C27.2551 64.1198 27.0939 64.2009 26.9667 64.3225C26.8395 64.4441 26.7518 64.6007 26.7149 64.7725C26.678 64.9443 26.6935 65.1235 26.7594 65.2875C26.8253 65.4516 26.9387 65.593 27.0851 65.6938C27.2316 65.7947 27.4046 65.8505 27.5821 65.8542C27.7597 65.8579 27.9339 65.8093 28.0827 65.7146C28.2315 65.6199 28.3481 65.4833 28.4178 65.3221C28.5111 65.1065 28.514 64.8624 28.4259 64.6431C28.3377 64.4238 28.1658 64.2472 27.9478 64.1521Z" fill="#FFC562"/>
<path d="M23.9049 60.874C23.7417 60.8035 23.5615 60.7823 23.3871 60.8131C23.2127 60.844 23.0519 60.9254 22.9251 61.0473C22.7983 61.1691 22.7111 61.3258 22.6746 61.4975C22.6381 61.6693 22.6539 61.8484 22.7201 62.0122C22.7862 62.1759 22.8997 62.3171 23.0462 62.4177C23.1927 62.5183 23.3656 62.5739 23.543 62.5774C23.7205 62.5809 23.8945 62.5323 24.0431 62.4375C24.1917 62.3428 24.3083 62.2063 24.3779 62.0452C24.4242 61.9382 24.4487 61.8231 24.45 61.7063C24.4512 61.5896 24.4293 61.4735 24.3853 61.3648C24.3414 61.256 24.2764 61.1567 24.194 61.0725C24.1115 60.9883 24.0133 60.9208 23.9049 60.874Z" fill="#FFC562"/>
<path d="M28.4297 58.4583C28.2666 58.3865 28.0861 58.3641 27.9111 58.394C27.7361 58.4239 27.5745 58.5048 27.4469 58.6263C27.3192 58.7479 27.2312 58.9046 27.1941 59.0766C27.157 59.2486 27.1724 59.4282 27.2384 59.5924C27.3044 59.7567 27.418 59.8983 27.5647 59.9992C27.7115 60.1001 27.8848 60.1558 28.0627 60.1592C28.2405 60.1626 28.4149 60.1136 28.5636 60.0183C28.7124 59.923 28.8288 59.7859 28.8981 59.6242C28.9901 59.4093 28.9926 59.1664 28.9049 58.9481C28.8172 58.7298 28.6464 58.5538 28.4297 58.4583Z" fill="#FFC562"/>
<path d="M33.4205 57.1973C33.475 57.0894 33.5065 56.9714 33.5132 56.8505C33.5198 56.7296 33.5015 56.6085 33.4593 56.4944C33.417 56.3803 33.3518 56.2758 33.2676 56.1873C33.1834 56.0987 33.0819 56.028 32.9695 55.9794C32.8571 55.9308 32.7361 55.9054 32.6138 55.9047C32.4916 55.904 32.3707 55.9281 32.2587 55.9755C32.1466 56.0228 32.0457 56.0925 31.9622 56.1801C31.8787 56.2678 31.8142 56.3716 31.7729 56.4852C31.6954 56.6979 31.7032 56.9327 31.7947 57.1415C31.8862 57.3503 32.0544 57.5173 32.2649 57.6083C32.4755 57.6993 32.7124 57.7074 32.9272 57.631C33.1421 57.5546 33.3185 57.3995 33.4205 57.1973Z" fill="#FFC562"/>
<path d="M32.8949 61.4308C32.7322 61.3612 32.5527 61.3407 32.3791 61.3719C32.2055 61.4031 32.0457 61.4847 31.9197 61.6064C31.7937 61.728 31.7073 61.8842 31.6714 62.0553C31.6354 62.2264 31.6515 62.4047 31.7177 62.5677C31.7838 62.7307 31.897 62.871 32.043 62.971C32.189 63.071 32.3612 63.1262 32.5379 63.1295C32.7146 63.1329 32.8879 63.0843 33.0358 62.9899C33.1838 62.8955 33.2997 62.7596 33.3691 62.5992C33.4153 62.4923 33.4397 62.3773 33.4409 62.2607C33.4421 62.1441 33.42 62.0282 33.3759 61.9197C33.3319 61.8112 33.2667 61.7121 33.1842 61.6282C33.1016 61.5443 33.0033 61.4773 32.8949 61.4308Z" fill="#FFC562"/>
<path d="M32.6873 66.659C32.5241 66.5885 32.3439 66.5673 32.1695 66.5982C31.995 66.629 31.8343 66.7105 31.7074 66.8323C31.5806 66.9541 31.4934 67.1108 31.457 67.2826C31.4205 67.4543 31.4363 67.6334 31.5024 67.7972C31.5686 67.961 31.6821 68.1021 31.8285 68.2027C31.975 68.3033 32.1479 68.3589 32.3254 68.3624C32.5028 68.366 32.6769 68.3173 32.8255 68.2226C32.9741 68.1278 33.0906 67.9913 33.1603 67.8302C33.2066 67.7233 33.231 67.6081 33.2323 67.4914C33.2336 67.3746 33.2116 67.2586 33.1677 67.1498C33.1238 67.041 33.0587 66.9417 32.9763 66.8575C32.8939 66.7733 32.7957 66.7059 32.6873 66.659Z" fill="#FFC562"/>
<path d="M33.1239 71.8437C32.9612 71.774 32.7817 71.7535 32.6081 71.7847C32.4345 71.816 32.2747 71.8976 32.1487 72.0192C32.0227 72.1408 31.9363 72.2971 31.9004 72.4682C31.8644 72.6393 31.8805 72.8176 31.9467 72.9805C32.0128 73.1435 32.126 73.2839 32.272 73.3839C32.418 73.4838 32.5902 73.539 32.7669 73.5424C32.9436 73.5457 33.1169 73.4972 33.2648 73.4028C33.4128 73.3084 33.5287 73.1724 33.5981 73.012C33.6448 72.9052 33.6695 72.7902 33.6709 72.6735C33.6723 72.5568 33.6503 72.4407 33.6062 72.3321C33.5621 72.2234 33.4967 72.1243 33.414 72.0405C33.3312 71.9566 33.2326 71.8898 33.1239 71.8437Z" fill="#FFC562"/>
<path d="M38.4229 74.0858C38.3135 74.0308 38.1941 73.9984 38.072 73.9907C37.9499 73.983 37.8278 74 37.7131 74.0408C37.5984 74.0816 37.4935 74.1453 37.4049 74.2279C37.3163 74.3105 37.2459 74.4104 37.1979 74.5213C37.1499 74.6323 37.1254 74.752 37.1258 74.8731C37.1263 74.9943 37.1517 75.1142 37.2006 75.2257C37.2494 75.3372 37.3206 75.4378 37.4099 75.5214C37.4991 75.605 37.6045 75.6698 37.7195 75.7119C37.9349 75.7906 38.1718 75.7851 38.3817 75.6964C38.5915 75.6077 38.7585 75.4425 38.8483 75.2347C38.9382 75.0269 38.9442 74.7922 38.8651 74.5786C38.786 74.365 38.6278 74.1887 38.4229 74.0858Z" fill="#FFC562"/>
<path d="M37.7072 69.0035C37.544 68.933 37.3638 68.9118 37.1894 68.9426C37.0149 68.9735 36.8542 69.055 36.7273 69.1768C36.6005 69.2986 36.5133 69.4553 36.4768 69.6271C36.4404 69.7988 36.4562 69.9779 36.5223 70.1417C36.5885 70.3055 36.702 70.4466 36.8484 70.5472C36.9949 70.6478 37.1678 70.7034 37.3453 70.7069C37.5227 70.7105 37.6968 70.6618 37.8454 70.567C37.994 70.4723 38.1105 70.3358 38.1802 70.1747C38.2265 70.0677 38.2509 69.9526 38.2522 69.8358C38.2535 69.7191 38.2315 69.603 38.1876 69.4943C38.1437 69.3855 38.0786 69.2862 37.9962 69.202C37.9138 69.1178 37.8156 69.0503 37.7072 69.0035Z" fill="#FFC562"/>
<path d="M37.777 63.9977C37.6139 63.9265 37.4336 63.9047 37.259 63.9351C37.0843 63.9654 36.9232 64.0465 36.7959 64.1681C36.6687 64.2897 36.5811 64.4463 36.5442 64.6181C36.5073 64.7899 36.5227 64.9691 36.5886 65.1331C36.6545 65.2971 36.7679 65.4385 36.9143 65.5394C37.0608 65.6403 37.2338 65.6961 37.4114 65.6998C37.5889 65.7035 37.7631 65.6549 37.9119 65.5602C38.0607 65.4655 38.1773 65.3288 38.2471 65.1677C38.3403 64.9521 38.3432 64.708 38.2551 64.4887C38.167 64.2694 37.995 64.0928 37.777 63.9977Z" fill="#FFC562"/>
<path d="M38.3038 60.0383C38.3735 59.8771 38.3932 59.6985 38.3604 59.5253C38.3275 59.3521 38.2436 59.1919 38.1193 59.0651C37.9949 58.9383 37.8358 58.8506 37.6619 58.813C37.4881 58.7754 37.3074 58.7897 37.1427 58.8541C36.978 58.9184 36.8367 59.0299 36.7368 59.1745C36.6369 59.319 36.5828 59.4901 36.5813 59.6661C36.5799 59.842 36.6311 60.015 36.7287 60.1629C36.8262 60.3109 36.9656 60.4273 37.1291 60.4973C37.3478 60.5909 37.5943 60.5952 37.8144 60.5092C38.0346 60.4231 38.2106 60.2538 38.3038 60.0383Z" fill="#FFC562"/>
<path d="M43.3283 62.9012C43.3977 62.7407 43.4174 62.563 43.3848 62.3904C43.3521 62.2179 43.2687 62.0584 43.145 61.932C43.0213 61.8057 42.8629 61.7181 42.6898 61.6805C42.5168 61.6429 42.3368 61.6568 42.1727 61.7206C42.0086 61.7844 41.8678 61.8951 41.7679 62.0389C41.6681 62.1826 41.6138 62.3528 41.6119 62.528C41.61 62.7032 41.6605 62.8755 41.7572 63.0231C41.8538 63.1707 41.9922 63.2871 42.1549 63.3574C42.373 63.4508 42.6189 63.4553 42.8387 63.3698C43.0586 63.2844 43.2346 63.1159 43.3283 62.9012Z" fill="#FFC562"/>
<path d="M42.8136 66.7341C42.7042 66.6791 42.5848 66.6468 42.4627 66.639C42.3407 66.6313 42.2186 66.6484 42.1039 66.6892C41.9891 66.7299 41.8843 66.7936 41.7957 66.8762C41.7071 66.9589 41.6366 67.0587 41.5886 67.1697C41.5406 67.2806 41.5161 67.4003 41.5166 67.5214C41.517 67.6426 41.5425 67.7625 41.5913 67.874C41.6402 67.9855 41.7114 68.0861 41.8006 68.1697C41.8899 68.2533 41.9952 68.3182 42.1102 68.3602C42.3257 68.4389 42.5626 68.4334 42.7724 68.3447C42.9823 68.256 43.1492 68.0908 43.2391 67.883C43.329 67.6752 43.335 67.4405 43.2559 67.2269C43.1768 67.0133 43.0186 66.837 42.8136 66.7341Z" fill="#FFC562"/>
<path d="M42.7528 71.3924C42.5896 71.3219 42.4094 71.3007 42.235 71.3315C42.0606 71.3624 41.8998 71.4439 41.773 71.5657C41.6462 71.6875 41.559 71.8442 41.5225 72.016C41.486 72.1877 41.5018 72.3668 41.568 72.5306C41.6341 72.6944 41.7476 72.8355 41.8941 72.9361C42.0406 73.0367 42.2135 73.0923 42.3909 73.0958C42.5684 73.0994 42.7424 73.0507 42.891 72.956C43.0396 72.8612 43.1562 72.7247 43.2258 72.5636C43.2721 72.4567 43.2966 72.3415 43.2978 72.2248C43.2991 72.108 43.2772 71.992 43.2332 71.8832C43.1893 71.7744 43.1243 71.6751 43.0419 71.5909C42.9594 71.5067 42.8612 71.4393 42.7528 71.3924Z" fill="#FFC562"/>
<path d="M42.5867 76.6685C42.5124 76.8565 42.5076 77.0651 42.5732 77.2575C42.6388 77.45 42.7706 77.614 42.9454 77.7207L43.5819 76.205C43.3864 76.1537 43.1796 76.172 42.9976 76.2567C42.8157 76.3415 42.6702 76.4872 42.5867 76.6685Z" fill="#FFC562"/>
<path d="M47.759 65.4676C47.6495 65.4126 47.5301 65.3803 47.4081 65.3726C47.286 65.3648 47.1639 65.3819 47.0492 65.4227C46.9345 65.4635 46.8296 65.5271 46.741 65.6097C46.6524 65.6924 46.5819 65.7922 46.5339 65.9032C46.4859 66.0141 46.4614 66.1338 46.4619 66.255C46.4624 66.3761 46.4878 66.4961 46.5366 66.6076C46.5855 66.719 46.6567 66.8197 46.7459 66.9033C46.8352 66.9869 46.9405 67.0517 47.0556 67.0937C47.2009 67.1354 47.3545 67.1381 47.5005 67.1016L48.0562 65.7782C47.9854 65.6513 47.883 65.5444 47.759 65.4676Z" fill="#FFC562"/>
<path d="M85.6321 42.4858C85.7867 42.5534 85.9576 42.5742 86.1232 42.5455C86.2888 42.5168 86.4416 42.4399 86.5623 42.3246C86.6829 42.2093 86.7659 42.0607 86.8008 41.8978C86.8357 41.7349 86.8208 41.565 86.7582 41.4095C86.6955 41.2541 86.5878 41.1201 86.4488 41.0247C86.3098 40.9293 86.1457 40.8767 85.9773 40.8735C85.8089 40.8704 85.6439 40.9168 85.503 41.007C85.3622 41.0972 85.252 41.2271 85.1864 41.3801C85.0997 41.5841 85.0979 41.8145 85.1813 42.0214C85.2648 42.2283 85.4267 42.3951 85.6321 42.4858Z" fill="#FFC562"/>
<path d="M84.3976 45.8982C84.2344 45.827 84.054 45.8052 83.8792 45.8357C83.7044 45.8661 83.5432 45.9473 83.416 46.0691C83.2887 46.1909 83.2012 46.3477 83.1645 46.5197C83.1278 46.6917 83.1436 46.871 83.2098 47.0351C83.2761 47.1991 83.3898 47.3404 83.5366 47.441C83.6834 47.5417 83.8566 47.5971 84.0343 47.6004C84.212 47.6036 84.3862 47.5545 84.5348 47.4592C84.6834 47.364 84.7997 47.2269 84.8689 47.0653C84.915 46.9587 84.9394 46.844 84.9407 46.7276C84.9419 46.6113 84.9201 46.4957 84.8763 46.3873C84.8325 46.2789 84.7677 46.1799 84.6856 46.096C84.6035 46.0121 84.5056 45.9449 84.3976 45.8982Z" fill="#FFC562"/>
<path d="M72.511 77.1618C72.5807 77.0006 72.6004 76.8221 72.5675 76.6488C72.5347 76.4756 72.4508 76.3154 72.3264 76.1886C72.2021 76.0618 72.0429 75.9741 71.8691 75.9365C71.6952 75.899 71.5145 75.9133 71.3498 75.9776C71.1851 76.042 71.0439 76.1535 70.944 76.298C70.844 76.4426 70.7899 76.6137 70.7885 76.7896C70.787 76.9656 70.8383 77.1385 70.9358 77.2865C71.0333 77.4344 71.1727 77.5508 71.3363 77.6208C71.4445 77.6681 71.5608 77.6936 71.6786 77.6961C71.7964 77.6985 71.9133 77.6778 72.0226 77.6351C72.1318 77.5924 72.2312 77.5286 72.3151 77.4474C72.3989 77.3661 72.4655 77.2691 72.511 77.1618Z" fill="#FFC562"/>
<path d="M76.1877 78.8511C76.0245 78.7799 75.8441 78.7581 75.6693 78.7885C75.4945 78.819 75.3333 78.9002 75.2061 79.022C75.0788 79.1438 74.9913 79.3006 74.9546 79.4726C74.9179 79.6446 74.9337 79.8239 74.9999 79.988C75.0662 80.152 75.1799 80.2933 75.3267 80.3939C75.4735 80.4946 75.6467 80.55 75.8244 80.5533C76.0021 80.5565 76.1763 80.5074 76.3249 80.4121C76.4735 80.3169 76.5898 80.1798 76.659 80.0182C76.7513 79.8028 76.7535 79.5593 76.6652 79.3406C76.5769 79.122 76.4053 78.946 76.1877 78.8511Z" fill="#FFC562"/>
<path d="M92.0511 85.0296C91.8878 84.959 91.7074 84.9379 91.5329 84.9688C91.3583 84.9998 91.1975 85.0814 91.0707 85.2034C90.9438 85.3255 90.8568 85.4824 90.8205 85.6543C90.7842 85.8262 90.8003 86.0054 90.8668 86.1692C90.9333 86.333 91.0471 86.474 91.1939 86.5744C91.3407 86.6748 91.5139 86.73 91.6915 86.7331C91.8691 86.7362 92.0431 86.687 92.1916 86.5917C92.34 86.4964 92.4561 86.3594 92.5253 86.198C92.5715 86.0911 92.5959 85.9761 92.5971 85.8595C92.5982 85.7429 92.5761 85.627 92.5321 85.5185C92.488 85.4099 92.4229 85.3109 92.3403 85.227C92.2578 85.1431 92.1595 85.076 92.0511 85.0296Z" fill="#FFC562"/>
<path d="M86.4262 82.6677C86.2635 82.598 86.084 82.5775 85.9104 82.6087C85.7368 82.64 85.577 82.7215 85.451 82.8432C85.3251 82.9648 85.2386 83.121 85.2027 83.2921C85.1667 83.4632 85.1828 83.6415 85.249 83.8045C85.3151 83.9675 85.4283 84.1078 85.5743 84.2078C85.7203 84.3078 85.8925 84.363 86.0692 84.3664C86.2459 84.3697 86.4192 84.3211 86.5671 84.2267C86.7151 84.1323 86.8311 83.9964 86.9004 83.836C86.9466 83.7292 86.971 83.6142 86.9722 83.4976C86.9734 83.381 86.9513 83.2651 86.9072 83.1565C86.8632 83.048 86.798 82.9489 86.7155 82.865C86.6329 82.7811 86.5346 82.7141 86.4262 82.6677Z" fill="#FFC562"/>
<path d="M90.7402 79.7109C90.7788 79.6191 90.7355 79.5266 90.7414 79.4311C93.6838 80.1502 96.7813 79.7502 99.4199 78.3103C102.058 76.8704 104.046 74.4958 104.988 71.657C105.93 68.8182 105.758 65.7224 104.506 62.983C103.254 60.2437 101.014 58.0606 98.2291 56.8666L81.3377 49.6247L88.4919 32.9547C89.6875 30.0524 89.6779 26.7897 88.4652 23.8721C87.2525 20.9544 84.9341 18.6163 82.0112 17.3631C79.0883 16.11 75.7958 16.0425 72.8456 17.1754C69.8954 18.3082 67.5244 20.5503 66.2454 23.4169L59.0929 40.091L42.1956 32.8467C39.246 31.5816 35.9211 31.5248 32.9521 32.6888C29.9832 33.8527 27.6134 36.142 26.3642 39.053C25.115 41.9641 25.0887 45.2584 26.291 48.2114C27.4933 51.1643 29.8257 53.5339 32.7753 54.7989L46.5336 60.6947C46.5636 60.8203 46.6232 60.9373 46.7075 61.0361C46.7918 61.135 46.8984 61.2128 47.0184 61.2632C47.1385 61.3136 47.2687 61.3352 47.3983 61.3262C47.5279 61.3172 47.6532 61.2778 47.7639 61.2113L49.6834 62.0174L48.0775 65.7601L47.5218 67.0835L43.6148 76.1918L42.9783 77.7075L42.56 78.7037C41.3674 81.4945 41.303 84.642 42.3801 87.4994C42.215 87.4907 42.0515 87.5301 41.9097 87.6128C41.7679 87.6956 41.6541 87.818 41.5825 87.9648C41.5358 88.0716 41.5111 88.1867 41.5097 88.3034C41.5084 88.4201 41.5304 88.5361 41.5745 88.6448C41.6186 88.7534 41.6839 88.8525 41.7667 88.9364C41.8494 89.0202 41.948 89.0871 42.0567 89.1331C42.2245 89.1979 42.4083 89.2082 42.5813 89.1624C42.7543 89.1167 42.9076 89.0173 43.0189 88.8787C44.0628 90.9105 45.6688 92.6094 47.6474 93.7748C49.6259 94.9402 51.8943 95.5235 54.1849 95.4557C56.4755 95.388 58.6926 94.6721 60.5746 93.3926C62.4566 92.1131 63.9248 90.3233 64.806 88.2346L65.6227 86.3386C65.8196 86.3945 66.0297 86.3772 66.2134 86.2902C66.3971 86.2031 66.5417 86.0522 66.6199 85.8658C66.6981 85.6795 66.7047 85.4706 66.6382 85.2785C66.5718 85.0864 66.437 84.9243 66.2592 84.8228L71.9498 71.5568L72.6478 71.85C72.6328 72.0159 72.6717 72.1827 72.7589 72.3261C72.846 72.4696 72.9769 72.5821 73.1323 72.6474C73.2878 72.7127 73.4597 72.7273 73.6231 72.6891C73.7866 72.6509 73.9329 72.5618 74.0409 72.435L78.21 74.2228C78.0854 74.2911 77.9812 74.3905 77.9076 74.5112C77.8533 74.6192 77.8219 74.7373 77.8154 74.8582C77.809 74.9792 77.8275 75.1003 77.8699 75.2143C77.9124 75.3283 77.9778 75.4328 78.0621 75.5212C78.1465 75.6097 78.2481 75.6803 78.3606 75.7287C78.4731 75.7771 78.5943 75.8023 78.7165 75.8027C78.8388 75.8032 78.9596 75.7788 79.0716 75.7313C79.1835 75.6837 79.2843 75.6138 79.3677 75.526C79.4511 75.4382 79.5153 75.3342 79.5564 75.2205C79.5941 75.0836 79.5959 74.9391 79.5617 74.8006L83.6871 76.5701C83.6703 76.6103 83.61 76.6154 83.5919 76.6585C83.5374 76.7664 83.5059 76.8844 83.4992 77.0053C83.4926 77.1262 83.5109 77.2474 83.5532 77.3614C83.5954 77.4755 83.6606 77.58 83.7448 77.6685C83.8291 77.7571 83.9305 77.8279 84.0429 77.8765C84.1553 77.925 84.2764 77.9505 84.3986 77.9511C84.5208 77.9518 84.6417 77.9277 84.7537 77.8803C84.8658 77.833 84.9667 77.7633 85.0502 77.6757C85.1338 77.588 85.1982 77.4842 85.2396 77.3706C85.2588 77.3247 85.229 77.2818 85.2412 77.2363L88.8514 78.7827C88.9677 78.8315 89.0874 78.848 89.202 78.8928C89.1876 78.9272 89.1454 78.9298 89.131 78.9642C89.0775 79.0728 89.0471 79.1912 89.0417 79.3122C89.0362 79.4332 89.0558 79.5543 89.0992 79.668C89.1426 79.7817 89.2089 79.8856 89.2941 79.9734C89.3793 80.0611 89.4815 80.1309 89.5945 80.1783C89.7075 80.2258 89.8289 80.2499 89.9512 80.2493C90.0734 80.2486 90.1941 80.2232 90.3057 80.1746C90.4172 80.126 90.5174 80.0552 90.6 79.9665C90.6825 79.8779 90.7458 79.7733 90.7859 79.6592L90.7402 79.7109Z" fill="#FFC562"/>
<path d="M81.1416 80.4485C80.9785 80.3773 80.7982 80.3555 80.6236 80.3859C80.4489 80.4162 80.2878 80.4973 80.1605 80.6189C80.0333 80.7405 79.9457 80.8971 79.9088 81.0689C79.8719 81.2407 79.8874 81.4199 79.9533 81.5839C80.0192 81.7479 80.1325 81.8893 80.279 81.9902C80.4254 82.0911 80.5984 82.1469 80.776 82.1506C80.9536 82.1543 81.1278 82.1057 81.2765 82.011C81.4253 81.9163 81.5419 81.7797 81.6117 81.6185C81.7049 81.4029 81.7078 81.1588 81.6197 80.9395C81.5316 80.7202 81.3597 80.5436 81.1416 80.4485Z" fill="#FFC562"/>
<path d="M76.2636 84.4549C76.1003 84.3843 75.9199 84.3632 75.7454 84.3941C75.5709 84.4251 75.41 84.5067 75.2832 84.6287C75.1564 84.7508 75.0693 84.9077 75.033 85.0796C74.9967 85.2515 75.0128 85.4307 75.0793 85.5945C75.1458 85.7583 75.2596 85.8993 75.4065 85.9997C75.5533 86.1001 75.7264 86.1553 75.904 86.1584C76.0816 86.1615 76.2556 86.1123 76.4041 86.017C76.5525 85.9217 76.6686 85.7847 76.7378 85.6233C76.8303 85.4074 76.8323 85.1632 76.7434 84.9443C76.6545 84.7253 76.482 84.5493 76.2636 84.4549Z" fill="#FFC562"/>
<path d="M81.4684 86.3265C81.3052 86.256 81.125 86.2348 80.9506 86.2656C80.7762 86.2965 80.6154 86.378 80.4886 86.4998C80.3617 86.6216 80.2746 86.7783 80.2381 86.9501C80.2016 87.1218 80.2174 87.3009 80.2836 87.4647C80.3497 87.6285 80.4632 87.7696 80.6097 87.8702C80.7562 87.9708 80.9291 88.0264 81.1065 88.0299C81.284 88.0335 81.458 87.9848 81.6066 87.89C81.7552 87.7953 81.8717 87.6588 81.9414 87.4977C81.9877 87.3907 82.0122 87.2756 82.0134 87.1588C82.0147 87.0421 81.9927 86.926 81.9488 86.8173C81.9049 86.7085 81.8399 86.6092 81.7574 86.525C81.675 86.4408 81.5768 86.3733 81.4684 86.3265Z" fill="#FFC562"/>
<path d="M86.7966 88.564C86.5812 88.4852 86.3443 88.4908 86.1345 88.5795C85.9246 88.6682 85.7577 88.8333 85.6678 89.0411C85.5779 89.2489 85.5719 89.4836 85.651 89.6972C85.7301 89.9108 85.8883 90.0871 86.0932 90.1901C86.2027 90.2451 86.3221 90.2774 86.4441 90.2851C86.5662 90.2929 86.6883 90.2758 86.803 90.235C86.9177 90.1942 87.0226 90.1306 87.1112 90.0479C87.1998 89.9653 87.2703 89.8655 87.3183 89.7545C87.3663 89.6436 87.3908 89.5238 87.3903 89.4027C87.3898 89.2816 87.3644 89.1616 87.3156 89.0501C87.2667 88.9387 87.1955 88.838 87.1063 88.7544C87.017 88.6708 86.9117 88.606 86.7966 88.564Z" fill="#FFC562"/>
<path d="M91.3905 91.6784C91.2273 91.6079 91.0471 91.5867 90.8727 91.6176C90.6983 91.6484 90.5375 91.7299 90.4107 91.8517C90.2839 91.9735 90.1967 92.1302 90.1602 92.302C90.1237 92.4737 90.1395 92.6528 90.2057 92.8166C90.2718 92.9804 90.3853 93.1215 90.5318 93.2221C90.6783 93.3227 90.8512 93.3783 91.0286 93.3819C91.2061 93.3854 91.3801 93.3367 91.5287 93.242C91.6773 93.1472 91.7939 93.0107 91.8635 92.8496C91.9098 92.7427 91.9343 92.6275 91.9356 92.5108C91.9368 92.394 91.9149 92.278 91.8709 92.1692C91.827 92.0604 91.762 91.9611 91.6796 91.8769C91.5971 91.7927 91.4989 91.7253 91.3905 91.6784Z" fill="#FFC562"/>
<path d="M96.1503 89.4526C95.9872 89.3815 95.8069 89.3597 95.6322 89.39C95.4576 89.4204 95.2965 89.5015 95.1692 89.623C95.042 89.7446 94.9543 89.9012 94.9174 90.073C94.8805 90.2448 94.896 90.4241 94.9619 90.5881C95.0278 90.7521 95.1412 90.8935 95.2876 90.9944C95.4341 91.0953 95.6071 91.1511 95.7847 91.1548C95.9622 91.1585 96.1364 91.1099 96.2852 91.0152C96.434 90.9204 96.5506 90.7838 96.6203 90.6226C96.7127 90.407 96.7152 90.1632 96.6272 89.9441C96.5392 89.725 96.3678 89.5484 96.1503 89.4526Z" fill="#FFC562"/>
<path d="M98.8438 85.0996C98.6806 85.029 98.5004 85.0079 98.326 85.0387C98.1516 85.0695 97.9908 85.151 97.864 85.2729C97.7372 85.3947 97.65 85.5514 97.6135 85.7231C97.577 85.8949 97.5928 86.074 97.659 86.2377C97.7251 86.4015 97.8386 86.5426 97.9851 86.6433C98.1316 86.7439 98.3045 86.7995 98.4819 86.803C98.6594 86.8065 98.8334 86.7579 98.982 86.6631C99.1306 86.5684 99.2472 86.4318 99.3168 86.2708C99.3631 86.1638 99.3876 86.0487 99.3889 85.9319C99.3901 85.8152 99.3682 85.6991 99.3243 85.5903C99.2803 85.4816 99.2153 85.3823 99.1329 85.2981C99.0504 85.2139 98.9522 85.1464 98.8438 85.0996Z" fill="#FFC562"/>
<path d="M94.6756 80.7759C94.6068 80.9366 94.5878 81.1143 94.6209 81.2866C94.6541 81.4589 94.7379 81.618 94.8618 81.744C94.9857 81.8699 95.1442 81.957 95.3172 81.9943C95.4902 82.0315 95.67 82.0172 95.8339 81.9531C95.9977 81.8891 96.1383 81.7782 96.2379 81.6345C96.3374 81.4907 96.3915 81.3206 96.3933 81.1455C96.395 80.9705 96.3444 80.7983 96.2477 80.6509C96.1511 80.5034 96.0128 80.3872 95.8503 80.3169C95.7421 80.2697 95.6257 80.2441 95.5079 80.2417C95.3901 80.2392 95.2732 80.2599 95.164 80.3026C95.0547 80.3453 94.9553 80.4091 94.8715 80.4904C94.7877 80.5716 94.7211 80.6687 94.6756 80.7759Z" fill="#FFC562"/>
<path d="M101.628 91.537C101.467 91.4671 101.289 91.4462 101.116 91.4767C100.943 91.5072 100.784 91.5878 100.659 91.7083C100.533 91.8288 100.447 91.9839 100.411 92.1538C100.375 92.3237 100.39 92.5009 100.456 92.663C100.521 92.8251 100.634 92.9647 100.779 93.0643C100.923 93.1639 101.095 93.2189 101.27 93.2224C101.446 93.2259 101.618 93.1778 101.765 93.084C101.912 92.9903 102.027 92.8552 102.096 92.6959C102.143 92.5901 102.167 92.4761 102.169 92.3605C102.17 92.2449 102.148 92.1299 102.105 92.0221C102.061 91.9144 101.997 91.8161 101.915 91.7328C101.833 91.6495 101.736 91.583 101.628 91.537Z" fill="#FFC562"/>
<path d="M97.0424 95.0684C96.8793 94.9972 96.699 94.9754 96.5243 95.0058C96.3497 95.0361 96.1886 95.1172 96.0613 95.2388C95.9341 95.3603 95.8464 95.5169 95.8095 95.6887C95.7726 95.8605 95.7881 96.0398 95.854 96.2038C95.9199 96.3678 96.0333 96.5092 96.1797 96.6101C96.3262 96.711 96.4992 96.7668 96.6767 96.7705C96.8543 96.7742 97.0285 96.7256 97.1773 96.6309C97.3261 96.5361 97.4427 96.3995 97.5124 96.2383C97.6057 96.0228 97.6086 95.7786 97.5205 95.5593C97.4323 95.34 97.2604 95.1635 97.0424 95.0684Z" fill="#FFC562"/>
<path d="M91.4994 97.4076C91.3454 97.3409 91.1753 97.3208 91.0107 97.3498C90.846 97.3788 90.6942 97.4556 90.5744 97.5705C90.4547 97.6854 90.3723 97.8333 90.3378 97.9954C90.3032 98.1575 90.318 98.3265 90.3804 98.4811C90.4427 98.6358 90.5497 98.769 90.6879 98.8641C90.8261 98.9591 90.9893 99.0117 91.1568 99.0151C91.3243 99.0186 91.4886 98.9727 91.6289 98.8834C91.7692 98.7941 91.8793 98.6653 91.9451 98.5133C92.0326 98.3093 92.0348 98.0787 91.9513 97.8715C91.8678 97.6644 91.7054 97.4976 91.4994 97.4076Z" fill="#FFC562"/>
<path d="M86.3109 94.6581C86.1475 94.5875 85.9672 94.5663 85.7926 94.5972C85.6181 94.6282 85.4572 94.7098 85.3304 94.8319C85.2036 94.9539 85.1165 95.1108 85.0802 95.2827C85.044 95.4547 85.0601 95.6339 85.1266 95.7977C85.193 95.9615 85.3069 96.1025 85.4537 96.2028C85.6005 96.3032 85.7737 96.3584 85.9513 96.3615C86.1289 96.3646 86.3029 96.3154 86.4513 96.2201C86.5997 96.1249 86.7159 95.9878 86.7851 95.8264C86.8775 95.6105 86.8795 95.3664 86.7906 95.1474C86.7018 94.9284 86.5292 94.7524 86.3109 94.6581Z" fill="#FFC562"/>
<path d="M81.5859 92.0593C81.4226 91.9887 81.2422 91.9675 81.0677 91.9985C80.8932 92.0294 80.7323 92.1111 80.6055 92.2331C80.4787 92.3551 80.3916 92.512 80.3553 92.684C80.319 92.8559 80.3352 93.0351 80.4016 93.1989C80.4681 93.3627 80.582 93.5037 80.7288 93.6041C80.8756 93.7045 81.0488 93.7597 81.2264 93.7628C81.4039 93.7658 81.578 93.7166 81.7264 93.6214C81.8748 93.5261 81.991 93.3891 82.0601 93.2276C82.1064 93.1208 82.1307 93.0058 82.1319 92.8892C82.1331 92.7726 82.111 92.6567 82.0669 92.5482C82.0229 92.4396 81.9577 92.3406 81.8752 92.2567C81.7926 92.1728 81.6943 92.1057 81.5859 92.0593Z" fill="#FFC562"/>
<path d="M76.4361 90.0082C76.2728 89.937 76.0924 89.9152 75.9177 89.9456C75.7429 89.9761 75.5817 90.0573 75.4544 90.1791C75.3272 90.3009 75.2397 90.4577 75.203 90.6297C75.1663 90.8017 75.182 90.981 75.2483 91.1451C75.3145 91.3091 75.4282 91.4504 75.575 91.551C75.7218 91.6517 75.895 91.7071 76.0728 91.7104C76.2505 91.7136 76.4247 91.6645 76.5733 91.5692C76.7219 91.474 76.8381 91.3369 76.9074 91.1753C76.9988 90.9598 77.0006 90.7166 76.9124 90.4982C76.8242 90.2798 76.6531 90.1038 76.4361 90.0082Z" fill="#FFC562"/>
<path d="M71.1025 87.6368C70.9397 87.5671 70.7602 87.5466 70.5866 87.5778C70.413 87.6091 70.2532 87.6907 70.1272 87.8123C70.0013 87.9339 69.9148 88.0902 69.8789 88.2613C69.8429 88.4324 69.859 88.6106 69.9252 88.7736C69.9913 88.9366 70.1046 89.0769 70.2505 89.1769C70.3965 89.2769 70.5688 89.3321 70.7454 89.3355C70.9221 89.3388 71.0954 89.2903 71.2433 89.1959C71.3913 89.1015 71.5073 88.9655 71.5766 88.8051C71.6229 88.6983 71.6472 88.5833 71.6484 88.4667C71.6496 88.3501 71.6275 88.2342 71.5834 88.1256C71.5394 88.0171 71.4742 87.918 71.3917 87.8341C71.3091 87.7503 71.2109 87.6832 71.1025 87.6368Z" fill="#FFC562"/>
<path d="M71.1837 81.9031C71.0204 81.8325 70.84 81.8113 70.6655 81.8422C70.491 81.8732 70.3301 81.9548 70.2033 82.0769C70.0765 82.1989 69.9894 82.3558 69.9531 82.5277C69.9168 82.6996 69.9329 82.8789 69.9994 83.0426C70.0659 83.2064 70.1797 83.3475 70.3266 83.4478C70.4734 83.5482 70.6465 83.6034 70.8241 83.6065C71.0017 83.6096 71.1758 83.5604 71.3242 83.4651C71.4726 83.3698 71.5888 83.2328 71.6579 83.0714C71.7504 82.8555 71.7524 82.6114 71.6635 82.3924C71.5746 82.1734 71.4021 81.9974 71.1837 81.9031Z" fill="#FFC562"/>
<path d="M40.7714 93.9291C40.8409 93.7685 40.8605 93.5908 40.8279 93.4183C40.7952 93.2458 40.7118 93.0862 40.5881 92.9599C40.4644 92.8335 40.306 92.7459 40.133 92.7083C39.9599 92.6707 39.78 92.6846 39.6159 92.7484C39.4518 92.8122 39.3109 92.923 39.211 93.0667C39.1112 93.2104 39.0569 93.3806 39.055 93.5558C39.0531 93.731 39.1036 93.9033 39.2003 94.0509C39.2969 94.1986 39.4353 94.3149 39.598 94.3852C39.8162 94.4786 40.062 94.4831 40.2818 94.3977C40.5017 94.3122 40.6777 94.1438 40.7714 93.9291Z" fill="#FFC562"/>
<path d="M46.1618 94.0145C46.2306 93.8538 46.2496 93.6761 46.2165 93.5038C46.1833 93.3315 46.0995 93.1724 45.9755 93.0464C45.8516 92.9205 45.6931 92.8334 45.5201 92.7962C45.3471 92.7589 45.1673 92.7732 45.0035 92.8373C44.8396 92.9013 44.699 93.0122 44.5995 93.1559C44.4999 93.2997 44.4458 93.4698 44.4441 93.6449C44.4423 93.8199 44.493 93.9921 44.5896 94.1396C44.6863 94.287 44.8246 94.4032 44.9871 94.4735C45.0953 94.5203 45.2116 94.5455 45.3293 94.5478C45.447 94.55 45.5638 94.5292 45.6729 94.4866C45.782 94.4439 45.8814 94.3802 45.9653 94.2992C46.0492 94.2182 46.1159 94.1215 46.1618 94.0145Z" fill="#FFC562"/>
<path d="M48.9255 98.5217C48.9943 98.361 49.0133 98.1833 48.9802 98.011C48.947 97.8387 48.8632 97.6796 48.7393 97.5536C48.6153 97.4277 48.4569 97.3406 48.2839 97.3034C48.1109 97.2661 47.9311 97.2804 47.7672 97.3445C47.6034 97.4085 47.4628 97.5194 47.3632 97.6631C47.2636 97.8069 47.2096 97.977 47.2078 98.1521C47.2061 98.3271 47.2567 98.4993 47.3534 98.6468C47.45 98.7942 47.5883 98.9104 47.7508 98.9807C47.8591 99.0275 47.9754 99.0527 48.093 99.055C48.2107 99.0572 48.3275 99.0364 48.4366 98.9938C48.5458 98.9511 48.6451 98.8875 48.729 98.8064C48.8129 98.7254 48.8797 98.6286 48.9255 98.5217Z" fill="#FFC562"/>
<path d="M42.7481 98.6156C42.5849 98.5444 42.4045 98.5226 42.2297 98.5531C42.055 98.5835 41.8937 98.6648 41.7665 98.7865C41.6393 98.9083 41.5517 99.0651 41.515 99.2371C41.4783 99.4091 41.4941 99.5885 41.5603 99.7525C41.6266 99.9165 41.7403 100.058 41.8871 100.158C42.0339 100.259 42.2071 100.315 42.3848 100.318C42.5626 100.321 42.7368 100.272 42.8854 100.177C43.0339 100.081 43.1502 99.9443 43.2194 99.7827C43.3117 99.5674 43.3139 99.3238 43.2256 99.1052C43.1373 98.8865 42.9657 98.7105 42.7481 98.6156Z" fill="#FFC562"/>
<path d="M37.7639 97.4816C37.6012 97.412 37.4217 97.3914 37.2481 97.4227C37.0745 97.4539 36.9147 97.5355 36.7887 97.6571C36.6628 97.7788 36.5764 97.935 36.5404 98.1061C36.5044 98.2772 36.5205 98.4555 36.5867 98.6185C36.6528 98.7814 36.7661 98.9218 36.912 99.0218C37.058 99.1218 37.2302 99.177 37.4069 99.1803C37.5836 99.1837 37.7569 99.1351 37.9048 99.0407C38.0528 98.9463 38.1688 98.8103 38.2381 98.6499C38.2848 98.5432 38.3095 98.4281 38.3109 98.3114C38.3123 98.1947 38.2903 98.0787 38.2462 97.97C38.2021 97.8613 38.1367 97.7622 38.054 97.6784C37.9712 97.5946 37.8726 97.5277 37.7639 97.4816Z" fill="#FFC562"/>
<path d="M37.3264 102.671C37.1636 102.601 36.9841 102.581 36.8106 102.612C36.637 102.643 36.4771 102.725 36.3512 102.846C36.2252 102.968 36.1388 103.124 36.1028 103.295C36.0669 103.466 36.083 103.645 36.1491 103.808C36.2153 103.971 36.3285 104.111 36.4745 104.211C36.6205 104.311 36.7927 104.366 36.9694 104.369C37.1461 104.373 37.3193 104.324 37.4673 104.23C37.6152 104.135 37.7312 103.999 37.8006 103.839C37.8468 103.732 37.8712 103.617 37.8724 103.501C37.8735 103.384 37.8514 103.268 37.8074 103.16C37.7633 103.051 37.6982 102.952 37.6156 102.868C37.5331 102.784 37.4348 102.717 37.3264 102.671Z" fill="#FFC562"/>
<path d="M42.0471 105.231C41.8845 105.16 41.7049 105.139 41.5311 105.17C41.3573 105.201 41.1971 105.282 41.0707 105.403C40.9443 105.525 40.8574 105.681 40.8211 105.852C40.7847 106.023 40.8005 106.201 40.8664 106.365C40.9323 106.528 41.0454 106.669 41.1913 106.769C41.3373 106.869 41.5096 106.924 41.6864 106.928C41.8632 106.932 42.0367 106.883 42.1848 106.789C42.3329 106.694 42.449 106.558 42.5184 106.398C42.5649 106.291 42.5897 106.176 42.5912 106.06C42.5926 105.943 42.5708 105.828 42.527 105.719C42.4832 105.611 42.4183 105.512 42.3359 105.428C42.2535 105.344 42.1554 105.277 42.0471 105.231Z" fill="#FFC562"/>
<path d="M45.6538 104.162C45.8165 104.232 45.996 104.253 46.1698 104.222C46.3436 104.192 46.5039 104.111 46.6302 103.989C46.7566 103.868 46.8435 103.712 46.8799 103.54C46.9162 103.369 46.9005 103.191 46.8346 103.028C46.7687 102.864 46.6556 102.724 46.5096 102.624C46.3636 102.523 46.1914 102.468 46.0145 102.464C45.8377 102.461 45.6643 102.509 45.5162 102.604C45.3681 102.698 45.252 102.834 45.1825 102.995C45.136 103.101 45.1113 103.216 45.1098 103.332C45.1083 103.449 45.1301 103.565 45.1739 103.673C45.2177 103.782 45.2827 103.881 45.365 103.965C45.4474 104.048 45.5455 104.115 45.6538 104.162Z" fill="#FFC562"/>
<path d="M54.414 98.4221C54.4838 98.2609 54.5034 98.0823 54.4706 97.9091C54.4377 97.7359 54.3538 97.5757 54.2295 97.4489C54.1052 97.3221 53.946 97.2343 53.7721 97.1968C53.5983 97.1592 53.4176 97.1735 53.2529 97.2379C53.0882 97.3022 52.947 97.4137 52.847 97.5583C52.7471 97.7028 52.693 97.8739 52.6915 98.0499C52.6901 98.2258 52.7414 98.3987 52.8389 98.5467C52.9364 98.6947 53.0758 98.8111 53.2394 98.8811C53.3476 98.9279 53.4639 98.9531 53.5816 98.9554C53.6993 98.9576 53.816 98.9368 53.9252 98.8942C54.0343 98.8515 54.1337 98.7879 54.2175 98.7069C54.3014 98.6258 54.3682 98.5291 54.414 98.4221Z" fill="#FFC562"/>
<path d="M63.6557 90.8516C63.586 91.0127 63.5663 91.1911 63.5991 91.3642C63.6318 91.5373 63.7156 91.6974 63.8397 91.8242C63.9638 91.951 64.1228 92.0389 64.2964 92.0766C64.4701 92.1144 64.6507 92.1004 64.8154 92.0363C64.9801 91.9723 65.1214 91.8612 65.2216 91.717C65.3218 91.5727 65.3763 91.4019 65.3782 91.2261C65.3801 91.0503 65.3293 90.8774 65.2323 90.7292C65.1354 90.5811 64.9965 90.4644 64.8333 90.3938C64.7249 90.347 64.6085 90.3216 64.4906 90.3193C64.3728 90.3169 64.2559 90.3376 64.1465 90.3801C64.0372 90.4226 63.9375 90.4861 63.8533 90.567C63.7691 90.6479 63.7019 90.7446 63.6557 90.8516Z" fill="#FFC562"/>
<path d="M61.9833 96.0725C61.9129 96.2336 61.8926 96.4121 61.925 96.5856C61.9573 96.7591 62.0408 96.9196 62.1649 97.0468C62.289 97.174 62.4481 97.2622 62.622 97.3002C62.7959 97.3382 62.9768 97.3242 63.1417 97.2601C63.3066 97.196 63.4482 97.0846 63.5484 96.9401C63.6486 96.7956 63.7029 96.6244 63.7045 96.4483C63.7062 96.2723 63.655 96.0992 63.5574 95.9511C63.4599 95.8029 63.3204 95.6864 63.1568 95.6163C62.9386 95.5229 62.6927 95.5184 62.4729 95.6039C62.2531 95.6893 62.0771 95.8578 61.9833 96.0725Z" fill="#FFC562"/>
<path d="M58.7836 97.9808C58.5681 97.9021 58.3313 97.9076 58.1214 97.9963C57.9116 98.0851 57.7446 98.2502 57.6547 98.458C57.5648 98.6658 57.5588 98.9005 57.6379 99.1141C57.717 99.3277 57.8752 99.504 58.0802 99.607C58.1896 99.6619 58.309 99.6943 58.4311 99.702C58.5531 99.7097 58.6753 99.6927 58.79 99.6519C58.9047 99.6111 59.0096 99.5474 59.0982 99.4648C59.1868 99.3822 59.2572 99.2823 59.3052 99.1714C59.3532 99.0604 59.3777 98.9407 59.3772 98.8196C59.3768 98.6985 59.3513 98.5785 59.3025 98.467C59.2537 98.3555 59.1824 98.2549 59.0932 98.1713C59.004 98.0877 58.8986 98.0229 58.7836 97.9808Z" fill="#FFC562"/>
<path d="M61.5164 102.529C61.3801 102.47 61.2295 102.452 61.0836 102.477C60.9378 102.503 60.8033 102.571 60.6972 102.673C60.5911 102.774 60.5181 102.905 60.4876 103.049C60.457 103.192 60.4702 103.342 60.5255 103.479C60.5808 103.616 60.6756 103.734 60.7981 103.818C60.9206 103.902 61.0652 103.948 61.2135 103.951C61.3618 103.954 61.5072 103.913 61.6313 103.833C61.7554 103.754 61.8526 103.64 61.9105 103.505C61.988 103.325 61.99 103.121 61.9161 102.938C61.8422 102.755 61.6985 102.608 61.5164 102.529Z" fill="#FFC562"/>
<path d="M56.2869 103.136C56.1236 103.065 55.9432 103.044 55.7687 103.075C55.5942 103.106 55.4333 103.188 55.3065 103.31C55.1797 103.432 55.0926 103.589 55.0563 103.761C55.02 103.933 55.0361 104.112 55.1026 104.276C55.1691 104.439 55.283 104.58 55.4298 104.681C55.5766 104.781 55.7498 104.836 55.9273 104.839C56.1049 104.842 56.279 104.793 56.4274 104.698C56.5758 104.603 56.692 104.466 56.7611 104.304C56.8073 104.197 56.8317 104.082 56.8329 103.966C56.8341 103.849 56.812 103.733 56.7679 103.625C56.7239 103.516 56.6587 103.417 56.5762 103.333C56.4936 103.249 56.3953 103.182 56.2869 103.136Z" fill="#FFC562"/>
<path d="M51.7652 103.638C51.8362 103.477 51.8571 103.298 51.8252 103.124C51.7932 102.951 51.71 102.79 51.5859 102.662C51.4619 102.534 51.3026 102.446 51.1285 102.408C50.9544 102.37 50.7732 102.383 50.608 102.448C50.4429 102.512 50.3012 102.623 50.2009 102.768C50.1007 102.913 50.0465 103.085 50.0452 103.261C50.0439 103.437 50.0955 103.611 50.1936 103.759C50.2916 103.907 50.4316 104.023 50.5958 104.093C50.8134 104.184 51.0577 104.188 51.2763 104.103C51.4949 104.018 51.6704 103.851 51.7652 103.638Z" fill="#FFC562"/>
<path d="M52.4502 107.995C52.287 107.924 52.1066 107.902 51.9318 107.932C51.7571 107.963 51.5958 108.044 51.4686 108.166C51.3414 108.288 51.2538 108.445 51.2171 108.616C51.1804 108.788 51.1962 108.968 51.2624 109.132C51.3287 109.296 51.4424 109.437 51.5892 109.538C51.736 109.638 51.9092 109.694 52.0869 109.697C52.2647 109.7 52.4389 109.651 52.5874 109.556C52.736 109.461 52.8523 109.324 52.9215 109.162C53.0138 108.947 53.016 108.703 52.9277 108.485C52.8394 108.266 52.6678 108.09 52.4502 107.995Z" fill="#FFC562"/>
<path d="M58.2263 108.286C58.0636 108.216 57.884 108.195 57.7102 108.226C57.5364 108.256 57.3762 108.338 57.2498 108.459C57.1234 108.58 57.0366 108.737 57.0002 108.908C56.9638 109.079 56.9796 109.257 57.0455 109.42C57.1114 109.584 57.2245 109.724 57.3705 109.825C57.5164 109.925 57.6887 109.98 57.8655 109.984C58.0424 109.987 58.2158 109.939 58.3639 109.844C58.512 109.75 58.6281 109.614 58.6975 109.453C58.7898 109.238 58.792 108.995 58.7037 108.776C58.6155 108.557 58.4438 108.381 58.2263 108.286Z" fill="#FFC562"/>
<path d="M54.4115 113.216C54.274 113.156 54.1222 113.138 53.9751 113.163C53.8281 113.189 53.6925 113.258 53.5855 113.36C53.4785 113.463 53.4049 113.595 53.3741 113.74C53.3433 113.884 53.3566 114.035 53.4123 114.173C53.4681 114.311 53.5638 114.43 53.6873 114.515C53.8108 114.6 53.9566 114.647 54.1062 114.649C54.2557 114.652 54.4024 114.611 54.5275 114.531C54.6526 114.451 54.7506 114.336 54.809 114.2C54.8871 114.018 54.8891 113.813 54.8146 113.628C54.7401 113.444 54.5951 113.295 54.4115 113.216Z" fill="#FFC562"/>
<path d="M48.4262 113.431C48.2634 113.361 48.0839 113.341 47.9103 113.372C47.7368 113.403 47.5769 113.485 47.451 113.606C47.325 113.728 47.2386 113.884 47.2026 114.055C47.1667 114.226 47.1828 114.405 47.2489 114.568C47.3151 114.731 47.4283 114.871 47.5743 114.971C47.7203 115.071 47.8925 115.126 48.0692 115.129C48.2459 115.133 48.4191 115.084 48.5671 114.99C48.715 114.895 48.831 114.759 48.9004 114.599C48.947 114.492 48.9717 114.377 48.9731 114.261C48.9745 114.144 48.9525 114.028 48.9084 113.919C48.8643 113.81 48.799 113.711 48.7162 113.628C48.6334 113.544 48.5349 113.477 48.4262 113.431Z" fill="#FFC562"/>
<path d="M47.1514 107.887C46.9882 107.817 46.808 107.796 46.6336 107.826C46.4592 107.857 46.2984 107.939 46.1715 108.061C46.0447 108.182 45.9576 108.339 45.9211 108.511C45.8846 108.683 45.9004 108.862 45.9665 109.025C46.0327 109.189 46.1462 109.33 46.2927 109.431C46.4391 109.532 46.612 109.587 46.7895 109.591C46.9669 109.594 47.141 109.546 47.2896 109.451C47.4382 109.356 47.5547 109.22 47.6244 109.058C47.6707 108.952 47.6951 108.836 47.6964 108.72C47.6977 108.603 47.6757 108.487 47.6318 108.378C47.5879 108.269 47.5229 108.17 47.4404 108.086C47.358 108.002 47.2598 107.934 47.1514 107.887Z" fill="#FFC562"/>
<path d="M42.8355 111.606C42.6723 111.535 42.4918 111.513 42.3171 111.544C42.1423 111.574 41.9811 111.655 41.8538 111.777C41.7266 111.899 41.6391 112.056 41.6024 112.228C41.5657 112.4 41.5814 112.579 41.6477 112.743C41.7139 112.907 41.8276 113.049 41.9744 113.149C42.1212 113.25 42.2945 113.305 42.4722 113.309C42.6499 113.312 42.8241 113.263 42.9727 113.167C43.1213 113.072 43.2375 112.935 43.3068 112.773C43.3982 112.558 43.4 112.315 43.3118 112.096C43.2236 111.878 43.0525 111.702 42.8355 111.606Z" fill="#FFC562"/>
<path d="M37.7899 108.606C37.6284 108.536 37.4499 108.514 37.2769 108.544C37.104 108.574 36.9445 108.655 36.8185 108.775C36.6926 108.896 36.606 109.051 36.5697 109.221C36.5333 109.391 36.5489 109.569 36.6144 109.731C36.68 109.893 36.7925 110.033 36.9377 110.133C37.0829 110.232 37.2544 110.287 37.4302 110.29C37.6061 110.294 37.7784 110.245 37.9255 110.151C38.0725 110.057 38.1876 109.921 38.2561 109.761C38.3021 109.656 38.3266 109.542 38.3281 109.427C38.3296 109.312 38.308 109.197 38.2647 109.09C38.2214 108.982 38.1571 108.884 38.0756 108.801C37.9941 108.718 37.897 108.652 37.7899 108.606Z" fill="#FFC562"/>
</g>
<defs>
<clipPath id="clip0_5_650">
<rect width="92" height="104" fill="white" transform="translate(41.2211 0.0522461) rotate(22.7791)"/>
</clipPath>
</defs>
</svg>
