<svg width="610" height="432" viewBox="0 0 610 432" fill="none" xmlns="http://www.w3.org/2000/svg">
<path d="M173.517 276.695L0.499939 227.234L173.517 171.955L346.535 227.234L173.517 276.695Z" fill="#274B69"/>
<mask id="mask0_5_19" style="mask-type:alpha" maskUnits="userSpaceOnUse" x="0" y="171" width="347" height="106">
<path fill-rule="evenodd" clip-rule="evenodd" d="M173.517 276.695L0.499939 227.234L173.517 171.955L346.535 227.234L173.517 276.695Z" fill="white"/>
</mask>
<g mask="url(#mask0_5_19)">
<path d="M-48.8969 216.752C111.012 282.092 76.4229 211.409 156.44 230.364C236.458 249.32 125.549 284.572 125.549 284.572L12.886 291.167L-25.2741 247.607" fill="#0C273A"/>
<path d="M186.256 159.096C166.881 164.792 173.517 171.955 173.517 171.955L372.662 262.536L342.256 191.908L271.671 179.435" fill="#11314B"/>
</g>
<path d="M173.517 221.697C129.016 221.697 92.9409 230.288 92.9409 240.886V303.375H93.4541C93.4541 298.628 253.581 298.628 253.581 303.375H254.094V240.886C254.094 230.288 218.018 221.697 173.517 221.697Z" fill="#274B69"/>
<mask id="mask1_5_19" style="mask-type:alpha" maskUnits="userSpaceOnUse" x="92" y="221" width="163" height="83">
<path fill-rule="evenodd" clip-rule="evenodd" d="M173.517 221.697C129.016 221.697 92.9409 230.288 92.9409 240.886V303.375H93.4541C93.4541 298.628 253.581 298.628 253.581 303.375H254.094V240.886C254.094 230.288 218.018 221.697 173.517 221.697Z" fill="white"/>
</mask>
<g mask="url(#mask1_5_19)">
<path d="M74.4404 288.999C101.869 216.479 227.719 226.149 253.535 240.653C279.35 255.157 226.106 206.81 226.106 206.81L90.575 203.587L69.6 221.314" fill="#11314B"/>
</g>
<rect x="47.195" y="210.362" width="3.11828" height="66.7713" fill="#FFC562"/>
<path d="M56.8572 319.518L52.3513 280.326H45.1561L40.6502 319.518C39.8834 322.85 41.2391 326.311 44.0662 328.238C46.8933 330.166 50.6141 330.166 53.4412 328.238C56.2683 326.311 57.6241 322.85 56.8572 319.518H56.8572Z" fill="#FFC562"/>
<mask id="mask2_5_19" style="mask-type:alpha" maskUnits="userSpaceOnUse" x="40" y="280" width="18" height="50">
<path fill-rule="evenodd" clip-rule="evenodd" d="M56.8572 319.518L52.3513 280.326H45.1561L40.6502 319.518C39.8834 322.85 41.2391 326.311 44.0662 328.238C46.8933 330.166 50.6141 330.166 53.4412 328.238C56.2683 326.311 57.6241 322.85 56.8572 319.518H56.8572Z" fill="white"/>
</mask>
<g mask="url(#mask2_5_19)">
<path d="M28.4263 337.791C42.9475 344.237 56.6923 277.718 56.6923 277.718H40.5577L27.65 287.387V297.057" fill="#D89D35"/>
</g>
<ellipse cx="48.7536" cy="277.134" rx="7.44704" ry="7.43825" fill="#BB393C"/>
<path d="M204.858 261.97L196.415 267.88L194.003 269.568C193.508 269.914 193.23 270.595 193.588 271.149C193.905 271.64 194.641 271.935 195.171 271.564L203.614 265.654L206.026 263.966C206.52 263.62 206.799 262.939 206.441 262.385C206.124 261.894 205.388 261.599 204.858 261.97Z" fill="#11314B"/>
<path d="M110.489 207.611C111.667 206.954 112.867 206.336 114.087 205.759C114.69 205.474 115.298 205.2 115.911 204.935C115.993 204.9 116.075 204.865 116.156 204.83C116.165 204.827 116.435 204.713 116.264 204.784C116.093 204.856 116.363 204.743 116.372 204.74C116.454 204.706 116.536 204.672 116.619 204.638C116.948 204.503 117.278 204.37 117.61 204.241C120.098 203.272 122.648 202.47 125.243 201.842C126.713 201.486 128.195 201.187 129.689 200.944C130.289 200.846 130.676 200.072 130.498 199.522C130.288 198.874 129.716 198.611 129.074 198.715C123.656 199.608 118.385 201.231 113.403 203.538C112.016 204.177 110.655 204.87 109.321 205.615C108.963 205.823 108.744 206.206 108.746 206.619C108.748 207.032 108.971 207.413 109.331 207.618C109.69 207.822 110.132 207.82 110.489 207.611L110.489 207.611Z" fill="#11314B"/>
<path d="M603.596 355.98C567.448 357.101 525.286 357.745 480.249 357.745C435.212 357.745 371.842 357.101 335.694 355.98C332.434 355.98 329.791 363.306 329.791 372.342C329.791 381.379 332.434 388.705 335.694 388.705C371.842 387.584 435.212 386.94 480.249 386.94C525.286 386.94 567.448 387.584 603.596 388.705C606.857 388.705 609.5 381.379 609.5 372.342C609.5 363.306 606.857 355.98 603.596 355.98Z" fill="#D6DCF2"/>
<path d="M594.727 350.735C561.178 352.216 522.048 353.066 480.249 353.066C438.45 353.066 378.113 352.216 344.564 350.735C341.538 350.735 339.085 360.409 339.085 372.342C339.085 384.276 341.538 393.95 344.564 393.95C378.113 392.469 438.45 391.619 480.249 391.619C522.048 391.619 561.178 392.469 594.727 393.95C597.753 393.95 600.206 384.276 600.206 372.342C600.206 360.409 597.753 350.735 594.727 350.735Z" fill="#EFF3FC"/>
<mask id="mask3_5_19" style="mask-type:alpha" maskUnits="userSpaceOnUse" x="339" y="350" width="262" height="44">
<path fill-rule="evenodd" clip-rule="evenodd" d="M594.727 350.735C561.178 352.216 522.048 353.066 480.249 353.066C438.45 353.066 378.113 352.216 344.564 350.735C341.538 350.735 339.085 360.409 339.085 372.342C339.085 384.276 341.538 393.95 344.564 393.95C378.113 392.469 438.45 391.619 480.249 391.619C522.048 391.619 561.178 392.469 594.727 393.95C597.753 393.95 600.206 384.276 600.206 372.342C600.206 360.409 597.753 350.735 594.727 350.735Z" fill="white"/>
</mask>
<g mask="url(#mask3_5_19)">
<path d="M352.462 347.179C333.465 380.012 357.74 409.454 357.74 409.454L367.494 379.488" fill="#D6DCF2"/>
</g>
<path d="M585.034 345.371C554.326 347.219 518.509 348.281 480.249 348.281C441.989 348.281 384.965 347.219 354.256 345.371C351.487 345.371 349.241 357.447 349.241 372.342C349.241 387.238 351.487 399.314 354.256 399.314C384.965 397.466 441.989 396.404 480.249 396.404C518.509 396.404 554.326 397.466 585.034 399.314C587.804 399.314 590.049 387.238 590.049 372.342C590.049 357.447 587.804 345.371 585.034 345.371Z" fill="#EFF3FC"/>
<mask id="mask4_5_19" style="mask-type:alpha" maskUnits="userSpaceOnUse" x="349" y="345" width="242" height="55">
<path fill-rule="evenodd" clip-rule="evenodd" d="M585.034 345.371C554.326 347.219 518.509 348.281 480.249 348.281C441.989 348.281 384.965 347.219 354.256 345.371C351.487 345.371 349.241 357.447 349.241 372.342C349.241 387.238 351.487 399.314 354.256 399.314C384.965 397.466 441.989 396.404 480.249 396.404C518.509 396.404 554.326 397.466 585.034 399.314C587.804 399.314 590.049 387.238 590.049 372.342C590.049 357.447 587.804 345.371 585.034 345.371Z" fill="white"/>
</mask>
<g mask="url(#mask4_5_19)">
<path d="M453.541 341.477C450.94 383.692 456.615 358.296 451.156 399.314C449.197 414.035 396.754 401.661 398.705 402.094C400.655 402.527 511.194 407.289 511.194 407.289L491.687 387.589C491.687 387.589 497.106 365.508 484.318 360.312L483.018 338.88L450.723 340.612" fill="#D6DCF2"/>
<path d="M362.725 335.416C352.462 347.179 346.65 395.235 370.095 396.465C393.539 397.695 416.044 400.296 416.044 400.296L392.636 418.98L326.746 412.052L339.085 341.044L368.361 324.159" fill="#D6DCF2"/>
</g>
<rect x="458.038" y="347.714" width="23.2144" height="42.7493" fill="#FFC562"/>
<path d="M499.26 408.692L487.814 405.412L484.652 416.879L460.628 374.114L475.236 365.927L499.26 408.692Z" fill="#FFC562"/>
<mask id="mask5_5_19" style="mask-type:alpha" maskUnits="userSpaceOnUse" x="460" y="365" width="40" height="52">
<path fill-rule="evenodd" clip-rule="evenodd" d="M499.26 408.692L487.814 405.412L484.652 416.879L460.628 374.114L475.236 365.927L499.26 408.692Z" fill="white"/>
</mask>
<g mask="url(#mask5_5_19)">
<path d="M489.303 383.801C487.136 397.006 476.935 396.568 482.577 413.186C488.22 429.804 466.654 391.702 466.654 391.702L485.402 380.229" fill="#D89D35"/>
</g>
<path d="M440.031 408.692L451.477 405.412L454.639 416.879L478.663 374.114L464.054 365.927L440.031 408.692Z" fill="#FFC562"/>
<mask id="mask6_5_19" style="mask-type:alpha" maskUnits="userSpaceOnUse" x="440" y="365" width="39" height="52">
<path fill-rule="evenodd" clip-rule="evenodd" d="M440.031 408.692L451.477 405.412L454.639 416.879L478.663 374.114L464.054 365.927L440.031 408.692Z" fill="white"/>
</mask>
<g mask="url(#mask6_5_19)">
<path d="M436.635 400.296C448.991 387.028 457.853 400.863 466.968 399.314C476.082 397.764 442.27 378.064 442.27 378.064L434.039 387.123" fill="#D89D35"/>
</g>
<ellipse cx="469.645" cy="379.488" rx="20.833" ry="20.8084" fill="#90282A"/>
<mask id="mask7_5_19" style="mask-type:alpha" maskUnits="userSpaceOnUse" x="448" y="358" width="43" height="43">
<ellipse cx="469.645" cy="379.488" rx="20.833" ry="20.8084" fill="white"/>
</mask>
<g mask="url(#mask7_5_19)">
<ellipse cx="461.8" cy="376.582" rx="20.833" ry="20.8084" fill="#BB393C"/>
</g>
<path d="M382.049 370.988V374.885C382.049 375.609 382.687 376.302 383.435 376.269C384.195 376.256 384.808 375.644 384.821 374.885V370.988C384.821 370.264 384.184 369.571 383.435 369.604C382.675 369.617 382.062 370.229 382.049 370.988V370.988Z" fill="#D6DCF2"/>
<path d="M554.973 365.794C555.013 366.668 554.974 367.543 554.857 368.41L554.907 368.042C554.797 368.834 554.626 369.616 554.393 370.381C554.276 370.763 554.145 371.141 553.999 371.513C553.971 371.609 553.933 371.703 553.886 371.791C553.893 371.781 554.029 371.462 553.938 371.668C553.923 371.702 553.908 371.737 553.893 371.771C553.808 371.966 553.718 372.158 553.624 372.349C553.272 373.068 552.864 373.758 552.404 374.413C552.296 374.567 552.184 374.717 552.073 374.867C551.97 375.005 552.259 374.631 552.152 374.766C552.121 374.805 552.09 374.844 552.059 374.883C551.989 374.971 551.918 375.058 551.846 375.145C551.59 375.451 551.322 375.747 551.042 376.033C550.735 376.345 550.415 376.642 550.082 376.926C549.996 376.998 549.91 377.07 549.822 377.141C549.783 377.172 549.744 377.203 549.705 377.234C549.522 377.383 549.913 377.078 549.778 377.179C549.588 377.322 549.396 377.462 549.2 377.596C548.895 377.786 548.668 378.08 548.564 378.424C548.468 378.783 548.518 379.167 548.703 379.49C549.085 380.082 549.961 380.426 550.599 379.986C554.188 377.51 556.657 373.723 557.473 369.443C557.701 368.241 557.792 367.017 557.744 365.794C557.71 365.072 557.131 364.376 556.358 364.41C555.636 364.442 554.937 365.02 554.973 365.794L554.973 365.794Z" fill="#D6DCF2"/>
<path d="M585.828 185.754C585.828 180.681 581.71 176.568 576.631 176.568H382.196C377.116 176.568 372.999 180.681 372.999 185.754V197.023H585.828L585.828 185.754Z" fill="#EFF3FC"/>
<mask id="mask8_5_19" style="mask-type:alpha" maskUnits="userSpaceOnUse" x="372" y="176" width="214" height="22">
<path fill-rule="evenodd" clip-rule="evenodd" d="M585.828 185.754C585.828 180.681 581.71 176.568 576.631 176.568H382.196C377.116 176.568 372.999 180.681 372.999 185.754V197.023H585.828L585.828 185.754Z" fill="white"/>
</mask>
<g mask="url(#mask8_5_19)">
<path d="M346.778 176.568C581.511 177.978 583.47 175.19 585.45 201.404C587.431 227.617 592.383 164.31 592.383 164.31L520.583 159.364L376.983 167.772" fill="#D6DCF2"/>
</g>
<path d="M372.999 197.023V309.492C372.999 314.565 377.116 318.678 382.196 318.678H576.631C581.71 318.678 585.828 314.565 585.828 309.492V197.023H372.999Z" fill="#589BF7"/>
<mask id="mask9_5_19" style="mask-type:alpha" maskUnits="userSpaceOnUse" x="372" y="197" width="214" height="122">
<path fill-rule="evenodd" clip-rule="evenodd" d="M372.999 197.023V309.492C372.999 314.565 377.116 318.678 382.196 318.678H576.631C581.71 318.678 585.828 314.565 585.828 309.492V197.023H372.999Z" fill="white"/>
</mask>
<g mask="url(#mask9_5_19)">
<path d="M367.072 292.191C372.25 334.004 549.194 322.796 549.194 322.796L368.798 340.039L354.556 301.972" fill="#2976DF"/>
</g>
<ellipse cx="384.561" cy="186.551" rx="2.54769" ry="2.54468" fill="#BB393C"/>
<ellipse cx="395.266" cy="186.551" rx="2.54769" ry="2.54468" fill="#FFC562"/>
<ellipse cx="405.971" cy="186.551" rx="2.54769" ry="2.54468" fill="#75AA3C"/>
<rect x="389.744" y="208.355" width="179.339" height="97.0371" rx="2.54885" fill="#97CC64"/>
<mask id="mask10_5_19" style="mask-type:alpha" maskUnits="userSpaceOnUse" x="389" y="208" width="181" height="98">
<rect x="389.744" y="208.355" width="179.339" height="97.0371" rx="2.54885" fill="white"/>
</mask>
<g mask="url(#mask10_5_19)">
<path d="M591.92 220.52C601.85 357.026 358.415 301.557 358.415 301.557C358.415 301.557 411.15 340.135 414.864 340.877C418.578 341.619 555.245 332.716 555.245 332.716L585.828 297.106V197.023L577.528 192.501" fill="#75AA3C"/>
</g>
<ellipse cx="479.414" cy="252.403" rx="28.4439" ry="28.4456" fill="#EFF3FC"/>
<path d="M471.489 252.403V241.922C471.488 241.286 471.827 240.697 472.379 240.378C472.931 240.06 473.611 240.06 474.163 240.378L483.239 245.618L492.316 250.859C492.867 251.178 493.207 251.766 493.207 252.403C493.207 253.04 492.867 253.628 492.316 253.947L483.239 259.188L474.163 264.428C473.611 264.747 472.931 264.746 472.379 264.428C471.827 264.109 471.488 263.521 471.489 262.884L471.489 252.403Z" fill="#FFC562"/>
<mask id="mask11_5_19" style="mask-type:alpha" maskUnits="userSpaceOnUse" x="471" y="240" width="23" height="25">
<path fill-rule="evenodd" clip-rule="evenodd" d="M471.489 252.403V241.922C471.488 241.286 471.827 240.697 472.379 240.378C472.931 240.06 473.611 240.06 474.163 240.378L483.239 245.618L492.316 250.859C492.867 251.178 493.207 251.766 493.207 252.403C493.207 253.04 492.867 253.628 492.316 253.947L483.239 259.188L474.163 264.428C473.611 264.747 472.931 264.746 472.379 264.428C471.827 264.109 471.488 263.521 471.489 262.884L471.489 252.403Z" fill="white"/>
</mask>
<g mask="url(#mask11_5_19)">
<path d="M490.932 245.78C491.508 261.586 457.27 272.362 457.27 272.362L479.413 273.656L507.857 252.403" fill="#D89D35"/>
</g>
<path d="M441.081 189.952L446.271 188.262C446.588 188.174 446.834 187.925 446.917 187.607C447 187.29 446.907 186.952 446.673 186.722C446.439 186.491 446.099 186.403 445.782 186.49L440.592 188.18C440.275 188.267 440.027 188.516 439.944 188.834C439.861 189.153 439.954 189.491 440.189 189.722C440.424 189.952 440.764 190.04 441.081 189.952Z" fill="#D6DCF2"/>
<path d="M544.055 245.588L540.221 252.942C539.974 253.382 540.12 253.937 540.551 254.199C540.974 254.422 541.572 254.325 541.809 253.869L545.644 246.516C545.891 246.076 545.745 245.521 545.314 245.259C544.891 245.036 544.293 245.133 544.055 245.588H544.055Z" fill="#75AA3C"/>
<path d="M423.608 278.454C423.98 278.454 424.315 278.23 424.458 277.887C424.6 277.543 424.521 277.148 424.258 276.885C423.995 276.623 423.599 276.544 423.256 276.686C422.912 276.828 422.688 277.163 422.688 277.535C422.693 278.04 423.102 278.448 423.608 278.454Z" fill="#75AA3C"/>
<rect x="292.125" y="405.953" width="248.031" height="45.4464" transform="rotate(-180 292.125 405.953)" fill="#BB393C"/>
<mask id="mask12_5_19" style="mask-type:alpha" maskUnits="userSpaceOnUse" x="44" y="360" width="249" height="46">
<rect x="292.125" y="405.953" width="248.031" height="45.4464" transform="rotate(-180 292.125 405.953)" fill="white"/>
</mask>
<g mask="url(#mask12_5_19)">
<rect x="261.052" y="412.049" width="31.6282" height="59.302" transform="rotate(-180 261.052 412.049)" fill="#90282A"/>
<rect x="221.293" y="412.049" width="5.91872" height="59.302" transform="rotate(-180 221.293 412.049)" fill="#90282A"/>
<path d="M41.3868 396.223C33.2486 403.243 200.822 403.243 197.123 406.199C193.424 409.155 48.0454 417.284 48.0454 417.284L34.7283 398.071" fill="#90282A"/>
<path d="M133.156 364.834C119.913 364.338 208.604 395.407 211.101 395.961C213.598 396.516 207.232 376.196 207.232 376.196L189.476 371.208" fill="#90282A"/>
</g>
<path d="M98.1056 359.365L226.098 388.554C226.098 388.554 228.687 362.321 234.236 359.365H98.1056Z" fill="#EFF3FC"/>
<path d="M266.894 302.652H79.9384C87.2189 317.296 79.9384 359.365 79.9384 359.365H266.894C266.894 359.365 259.613 317.296 266.894 302.652Z" fill="#EFF3FC"/>
<mask id="mask13_5_19" style="mask-type:alpha" maskUnits="userSpaceOnUse" x="79" y="302" width="188" height="58">
<path fill-rule="evenodd" clip-rule="evenodd" d="M266.894 302.652H79.9384C87.2189 317.296 79.9384 359.365 79.9384 359.365H266.894C266.894 359.365 259.613 317.296 266.894 302.652Z" fill="white"/>
</mask>
<g mask="url(#mask13_5_19)">
<path d="M77.3536 324.603L81.128 324.75L145.786 327.266L73.5781 331.008" fill="#D6DCF2"/>
<path d="M295.959 340.859L292.184 340.713L227.526 338.197L299.734 334.454" fill="#D6DCF2"/>
<path d="M297.846 313.765L294.072 313.618L90.9888 311.032L301.622 307.36" fill="#D6DCF2"/>
</g>
<rect x="72.6554" y="292.001" width="201.521" height="10.6504" fill="#75AA3C"/>
<mask id="mask14_5_19" style="mask-type:alpha" maskUnits="userSpaceOnUse" x="72" y="292" width="203" height="11">
<rect x="72.6554" y="292.001" width="201.521" height="10.6504" fill="white"/>
</mask>
<g mask="url(#mask14_5_19)">
<path d="M60.8538 297.326L306.333 302.652L72.6553 318.379" fill="#97CC64"/>
</g>
<rect x="72.6554" y="349.909" width="201.521" height="10.6504" fill="#75AA3C"/>
<mask id="mask15_5_19" style="mask-type:alpha" maskUnits="userSpaceOnUse" x="72" y="349" width="203" height="12">
<rect x="72.6554" y="349.909" width="201.521" height="10.6504" fill="white"/>
</mask>
<g mask="url(#mask15_5_19)">
<path d="M64.9052 359.365C79.9383 359.365 245.426 356.549 246.536 360.56C247.646 364.571 83.0312 370.483 83.0312 370.483L49.6423 359.365" fill="#75AA3C"/>
</g>
<path d="M195.278 335.807L206.029 333.581L209.101 332.945C209.622 332.798 209.928 332.26 209.787 331.737C209.632 331.223 209.1 330.921 208.578 331.051L197.827 333.277L194.755 333.913C194.234 334.06 193.928 334.598 194.068 335.121C194.223 335.636 194.756 335.938 195.278 335.807Z" fill="#D6DCF2"/>
<path d="M97.1529 387.265H110.073C110.614 387.262 111.052 386.823 111.052 386.283C111.052 385.742 110.614 385.303 110.073 385.301H97.1529C96.6116 385.303 96.174 385.742 96.174 386.283C96.174 386.823 96.6116 387.262 97.1529 387.265Z" fill="#90282A"/>
<path d="M231.397 406.371L219.169 394.157L261.252 344.371L281.243 364.338L231.397 406.371Z" fill="#9A7ED9"/>
<mask id="mask16_5_19" style="mask-type:alpha" maskUnits="userSpaceOnUse" x="219" y="344" width="63" height="63">
<path fill-rule="evenodd" clip-rule="evenodd" d="M231.397 406.371L219.169 394.157L261.252 344.371L281.243 364.338L231.397 406.371Z" fill="white"/>
</mask>
<g mask="url(#mask16_5_19)">
<path d="M238.35 362.486C261.67 359.472 247.129 380.847 266.06 393.178C284.991 405.51 283.071 367.967 283.071 367.967L238.624 352.621" fill="#6F4EB9"/>
</g>
<ellipse cx="228.652" cy="396.899" rx="16.6675" ry="16.6478" fill="#9A7ED9"/>
<mask id="mask17_5_19" style="mask-type:alpha" maskUnits="userSpaceOnUse" x="211" y="380" width="35" height="34">
<ellipse cx="228.652" cy="396.899" rx="16.6675" ry="16.6478" fill="white"/>
</mask>
<g mask="url(#mask17_5_19)">
<path d="M220.791 378.106C221.091 419.122 253.44 413.547 253.44 413.547L202.408 416.745L199.939 390.438" fill="#6F4EB9"/>
</g>
<path d="M415.66 406.371L427.888 394.157L385.805 344.371L365.814 364.338L415.66 406.371Z" fill="#9A7ED9"/>
<mask id="mask18_5_19" style="mask-type:alpha" maskUnits="userSpaceOnUse" x="365" y="344" width="63" height="63">
<path fill-rule="evenodd" clip-rule="evenodd" d="M415.66 406.371L427.888 394.157L385.805 344.371L365.814 364.338L415.66 406.371Z" fill="white"/>
</mask>
<g mask="url(#mask18_5_19)">
<path d="M408.707 362.486C385.386 359.472 399.928 380.847 380.997 393.178C362.066 405.51 363.986 367.967 363.986 367.967L408.433 352.621" fill="#6F4EB9"/>
</g>
<ellipse cx="418.405" cy="396.899" rx="16.6675" ry="16.6478" fill="#9A7ED9"/>
<mask id="mask19_5_19" style="mask-type:alpha" maskUnits="userSpaceOnUse" x="401" y="380" width="35" height="34">
<ellipse cx="418.405" cy="396.899" rx="16.6675" ry="16.6478" fill="white"/>
</mask>
<g mask="url(#mask19_5_19)">
<path d="M426.266 378.106C425.966 419.122 393.617 413.547 393.617 413.547L444.649 416.745L447.118 390.438" fill="#6F4EB9"/>
</g>
<rect x="315.409" y="106.302" width="14.9441" height="27.6778" fill="#EFF3FC"/>
<mask id="mask20_5_19" style="mask-type:alpha" maskUnits="userSpaceOnUse" x="315" y="106" width="16" height="28">
<rect x="315.409" y="106.302" width="14.9441" height="27.6778" fill="white"/>
</mask>
<g mask="url(#mask20_5_19)">
<path d="M311.93 127.773C310.696 112.201 334.514 114.619 330.192 110.303C325.871 105.987 308.478 104.213 308.478 104.213V106.302" fill="#D6DCF2"/>
</g>
<path d="M337.285 104.213C337.285 110.74 330.837 111.703 322.881 111.703C314.926 111.703 308.477 110.74 308.477 104.213C308.477 97.6861 314.926 92.3951 322.881 92.3951C330.837 92.3951 337.285 97.6861 337.285 104.213Z" fill="#EFF3FC"/>
<path d="M394.307 166.462C391.832 164.438 391.469 160.793 393.496 158.32L441.506 99.7678C443.533 97.2957 447.182 96.9329 449.657 98.9575C452.132 100.982 452.496 104.627 450.469 107.099L402.459 165.652C400.432 168.124 396.783 168.487 394.307 166.462L394.307 166.462Z" fill="#EFF3FC"/>
<path d="M379.408 94.9384C367.084 109.969 385.708 127.413 410.02 147.3C434.331 167.187 455.124 181.986 467.448 166.956C479.772 151.925 470.054 123.619 445.743 103.732C421.431 83.8449 391.732 79.9079 379.408 94.9384Z" fill="#6F4EB9"/>
<mask id="mask21_5_19" style="mask-type:alpha" maskUnits="userSpaceOnUse" x="375" y="85" width="98" height="89">
<path fill-rule="evenodd" clip-rule="evenodd" d="M379.408 94.9384C367.084 109.969 385.708 127.413 410.02 147.3C434.331 167.187 455.124 181.986 467.448 166.956C479.772 151.925 470.054 123.619 445.743 103.732C421.431 83.8449 391.732 79.9079 379.408 94.9384Z" fill="white"/>
</mask>
<g mask="url(#mask21_5_19)">
<path d="M428.384 78.9604C388.099 92.5375 432.057 165.977 472.792 181.406C513.527 196.835 517.234 152.948 517.234 152.948L461.626 80.1947" fill="#9A7ED9"/>
</g>
<path d="M436.383 96.0754C432.149 101.239 436.684 105.237 441.853 109.465C447.023 113.694 450.869 116.552 455.103 111.389C457.842 108.048 458.588 103.503 457.061 99.4637C455.535 95.4247 451.967 92.506 447.701 91.8071C443.436 91.1082 439.121 92.7352 436.383 96.0753V96.0754Z" fill="#EFF3FC"/>
<mask id="mask22_5_19" style="mask-type:alpha" maskUnits="userSpaceOnUse" x="434" y="91" width="24" height="24">
<path fill-rule="evenodd" clip-rule="evenodd" d="M436.383 96.0754C432.149 101.239 436.684 105.237 441.853 109.465C447.023 113.694 450.869 116.552 455.103 111.389C457.842 108.048 458.588 103.503 457.061 99.4637C455.535 95.4247 451.967 92.506 447.701 91.8071C443.436 91.1082 439.121 92.7352 436.383 96.0753V96.0754Z" fill="white"/>
</mask>
<g mask="url(#mask22_5_19)">
<ellipse cx="448.959" cy="89.3949" rx="12.6664" ry="9.2001" fill="#D6DCF2"/>
</g>
<path d="M196.105 98.9577C198.58 96.9331 202.23 97.2959 204.257 99.768L252.266 158.321C254.293 160.793 253.93 164.438 251.455 166.463C248.98 168.487 245.331 168.124 243.304 165.652L195.294 107.1C193.267 104.628 193.63 100.982 196.105 98.9577Z" fill="#EFF3FC"/>
<path d="M266.355 94.9384C278.679 109.969 260.055 127.413 235.743 147.3C211.431 167.187 190.639 181.986 178.315 166.956C165.991 151.925 175.708 123.619 200.02 103.732C224.332 83.8449 254.031 79.9079 266.355 94.9384Z" fill="#6F4EB9"/>
<mask id="mask23_5_19" style="mask-type:alpha" maskUnits="userSpaceOnUse" x="172" y="85" width="99" height="89">
<path fill-rule="evenodd" clip-rule="evenodd" d="M266.355 94.9384C278.679 109.969 260.055 127.413 235.743 147.3C211.431 167.187 190.639 181.986 178.315 166.956C165.991 151.925 175.708 123.619 200.02 103.732C224.332 83.8449 254.031 79.9079 266.355 94.9384Z" fill="white"/>
</mask>
<g mask="url(#mask23_5_19)">
<path d="M217.379 78.9604C257.664 92.5375 213.706 165.977 172.971 181.406C132.236 196.835 128.529 152.948 128.529 152.948L184.138 80.1947" fill="#9A7ED9"/>
</g>
<path d="M209.38 96.0754C213.614 101.239 209.079 105.237 203.909 109.465C198.74 113.694 194.894 116.552 190.66 111.389C186.426 106.225 187.185 98.6115 192.354 94.3829C197.524 90.1543 205.146 90.912 209.38 96.0753V96.0754Z" fill="#EFF3FC"/>
<mask id="mask24_5_19" style="mask-type:alpha" maskUnits="userSpaceOnUse" x="187" y="91" width="25" height="24">
<path fill-rule="evenodd" clip-rule="evenodd" d="M209.38 96.0754C213.614 101.239 209.079 105.237 203.909 109.465C198.74 113.694 194.894 116.552 190.66 111.389C186.426 106.225 187.185 98.6115 192.354 94.3829C197.524 90.1543 205.146 90.912 209.38 96.0753V96.0754Z" fill="white"/>
</mask>
<g mask="url(#mask24_5_19)">
<ellipse cx="196.804" cy="89.3949" rx="12.6664" ry="9.2001" fill="#D6DCF2"/>
</g>
<ellipse cx="324.008" cy="255.506" rx="131.843" ry="131.687" fill="#9A7ED9"/>
<mask id="mask25_5_19" style="mask-type:alpha" maskUnits="userSpaceOnUse" x="192" y="123" width="264" height="265">
<ellipse cx="324.008" cy="255.506" rx="131.843" ry="131.687" fill="white"/>
</mask>
<g mask="url(#mask25_5_19)">
<path d="M434.584 183.775C517.238 410.58 139.443 413.547 139.443 413.547L374.022 443.755L516.004 396.899L535.758 262.719" fill="#6F4EB9"/>
<path d="M164.547 323.025C129.977 212.862 273.31 126.888 324.008 123.819C374.706 120.75 229.186 116.972 229.186 116.972L194.869 129.46L151.377 146.271" fill="#6F4EB9"/>
<path d="M369.61 129.46C401.256 148.79 426.966 170.455 434.584 183.775C442.201 197.095 453.449 172.679 453.449 172.679L394.697 127.362" fill="#9A7ED9"/>
</g>
<ellipse cx="324.008" cy="255.506" rx="105.311" ry="105.187" fill="#9A7ED9"/>
<ellipse cx="324.008" cy="255.506" rx="94.8213" ry="94.7093" fill="#EFF3FC"/>
<mask id="mask26_5_19" style="mask-type:alpha" maskUnits="userSpaceOnUse" x="229" y="160" width="190" height="191">
<ellipse cx="324.008" cy="255.506" rx="94.8213" ry="94.7093" fill="white"/>
</mask>
<g mask="url(#mask26_5_19)">
<path d="M407.815 191.813L223.568 381.055L337.286 419.212L448.511 350.216L442.738 218.616C442.738 218.616 411.135 176.615 410.892 178.296" fill="#D6DCF2"/>
</g>
<rect x="321.441" y="167.061" width="2.88163" height="11.2355" rx="0.953277" fill="#EFF3FC"/>
<rect x="321.441" y="332.716" width="2.88163" height="11.2355" rx="0.953277" fill="#EFF3FC"/>
<rect x="411.432" y="254.068" width="2.8774" height="11.2488" rx="0.953277" transform="rotate(90 411.432 254.068)" fill="#EFF3FC"/>
<rect x="245.58" y="254.068" width="2.8774" height="11.2488" rx="0.953277" transform="rotate(90 245.58 254.068)" fill="#EFF3FC"/>
<rect x="321.441" y="167.061" width="2.88163" height="11.2355" rx="0.953277" fill="#EFF3FC"/>
<rect x="321.441" y="332.716" width="2.88163" height="11.2355" rx="0.953277" fill="#EFF3FC"/>
<rect x="411.432" y="254.068" width="2.8774" height="11.2488" rx="0.953277" transform="rotate(90 411.432 254.068)" fill="#EFF3FC"/>
<rect x="245.58" y="254.068" width="2.8774" height="11.2488" rx="0.953277" transform="rotate(90 245.58 254.068)" fill="#EFF3FC"/>
<rect width="2.88058" height="11.2397" rx="0.953277" transform="matrix(0.86628 -0.499558 0.500445 0.865768 277.359 179.63)" fill="#EFF3FC"/>
<rect width="2.88058" height="11.2397" rx="0.953277" transform="matrix(0.866279 -0.49956 0.500446 0.865768 360.285 323.091)" fill="#EFF3FC"/>
<rect width="2.87825" height="11.2455" rx="0.953277" transform="matrix(0.500445 0.865768 -0.86628 0.499558 398.848 210.038)" fill="#EFF3FC"/>
<rect width="2.87825" height="11.2455" rx="0.953277" transform="matrix(0.500448 0.865767 -0.866278 0.499561 255.216 292.865)" fill="#EFF3FC"/>
<rect width="2.87825" height="11.2455" rx="0.953277" transform="matrix(0.500449 -0.865766 0.866278 0.499563 245.475 212.53)" fill="#EFF3FC"/>
<path d="M389.827 294.111C390.224 293.423 391.105 293.188 391.794 293.585L399.041 297.764C399.73 298.161 399.966 299.041 399.568 299.729C399.171 300.417 398.29 300.653 397.601 300.256L390.354 296.077C389.665 295.679 389.429 294.8 389.827 294.111L389.827 294.111Z" fill="#EFF3FC"/>
<path d="M367.157 178.91C367.488 179.101 367.729 179.415 367.828 179.784C367.927 180.152 367.876 180.545 367.685 180.876L363.5 188.115C363.102 188.803 362.221 189.038 361.532 188.641C360.843 188.244 360.607 187.364 361.005 186.675L365.189 179.437C365.38 179.106 365.695 178.865 366.064 178.766C366.433 178.668 366.826 178.719 367.157 178.91V178.91Z" fill="#EFF3FC"/>
<rect width="2.88058" height="11.2397" rx="0.953277" transform="matrix(0.866284 0.499552 -0.500439 0.865772 282.984 321.653)" fill="#EFF3FC"/>
<ellipse cx="322.881" cy="258.393" rx="4.33078" ry="4.32567" fill="#9A7ED9"/>
<path d="M324.044 276.103H321.182L322.269 186.456H322.957L324.044 276.103Z" fill="#935738"/>
<path d="M362.139 200.98L328.164 244.822C328.144 244.845 328.125 244.87 328.109 244.897L316.797 266.846C316.682 267.015 316.72 267.245 316.883 267.368L317.973 268.091L319.063 268.814C319.241 268.916 319.467 268.861 319.579 268.69L335.434 249.753C335.453 249.728 335.469 249.701 335.482 249.674L362.734 201.375C362.835 201.211 362.787 200.997 362.627 200.89C362.467 200.784 362.251 200.824 362.139 200.98Z" fill="#FFC562"/>
<mask id="mask27_5_19" style="mask-type:alpha" maskUnits="userSpaceOnUse" x="316" y="200" width="47" height="69">
<path fill-rule="evenodd" clip-rule="evenodd" d="M362.139 200.98L328.164 244.822C328.144 244.845 328.125 244.87 328.109 244.897L316.797 266.846C316.682 267.015 316.72 267.245 316.883 267.368L317.973 268.091L319.063 268.814C319.241 268.916 319.467 268.861 319.579 268.69L335.434 249.753C335.453 249.728 335.469 249.701 335.482 249.674L362.734 201.375C362.835 201.211 362.787 200.997 362.627 200.89C362.467 200.784 362.251 200.824 362.139 200.98Z" fill="white"/>
</mask>
<g mask="url(#mask27_5_19)">
<path d="M322.882 246.741C329.061 245.232 337.6 255.506 337.6 255.506H325.845" fill="#FFC562"/>
</g>
<path d="M295.892 243.451C295.216 241.378 293.5 239.812 291.372 239.326C289.244 238.84 287.017 239.505 285.505 241.078L272.738 238.161C272.276 238.083 271.983 238.837 272.378 239.091L283.777 245.531C283.832 247.71 285.028 249.701 286.928 250.775C288.828 251.848 291.153 251.846 293.051 250.77L306.382 258.302C306.409 258.319 306.437 258.332 306.466 258.341L330.749 263.659C330.988 263.705 331.224 263.562 331.293 263.328L331.955 261.624L332.616 259.92C332.723 259.701 332.645 259.436 332.437 259.309L310.911 246.89C310.883 246.877 310.853 246.868 310.822 246.862L295.892 243.451Z" fill="#FFC562"/>
<mask id="mask28_5_19" style="mask-type:alpha" maskUnits="userSpaceOnUse" x="272" y="238" width="61" height="26">
<path fill-rule="evenodd" clip-rule="evenodd" d="M295.892 243.451C295.216 241.378 293.5 239.812 291.372 239.326C289.244 238.84 287.017 239.505 285.505 241.078L272.738 238.161C272.276 238.083 271.983 238.837 272.378 239.091L283.777 245.531C283.832 247.71 285.028 249.701 286.928 250.775C288.828 251.848 291.153 251.846 293.051 250.77L306.382 258.302C306.409 258.319 306.437 258.332 306.466 258.341L330.749 263.659C330.988 263.705 331.224 263.562 331.293 263.328L331.955 261.624L332.616 259.92C332.723 259.701 332.645 259.436 332.437 259.309L310.911 246.89C310.883 246.877 310.853 246.868 310.822 246.862L295.892 243.451Z" fill="white"/>
</mask>
<g mask="url(#mask28_5_19)">
<path d="M299.327 262.719C307.763 263.216 310.887 248.123 316.013 248.99C321.138 249.857 316.797 266.846 316.797 266.846L301.59 266.504" fill="#D89D35"/>
</g>
<ellipse cx="322.881" cy="258.393" rx="11.6658" ry="11.652" fill="#FFC562"/>
<ellipse cx="322.881" cy="258.393" rx="6.15098" ry="6.14371" fill="#935738"/>
<path d="M398.71 105.629C396.704 108.848 397.38 113.47 400.224 115.981L398.71 105.629Z" fill="#6F4EB9"/>
<path d="M358.564 300.568C355.145 306.742 348.586 311.071 341.56 311.792L358.564 300.568Z" fill="#D6DCF2"/>
<path d="M224.561 325.218C223.827 329.663 225.984 334.451 229.803 336.849L224.561 325.218Z" fill="#6F4EB9"/>
<path d="M300.526 411.27L302.626 404.803V371.138H281.031L283.325 413.26L300.526 411.27Z" fill="#FF9763"/>
<mask id="mask29_5_19" style="mask-type:alpha" maskUnits="userSpaceOnUse" x="281" y="371" width="22" height="43">
<path fill-rule="evenodd" clip-rule="evenodd" d="M300.526 411.27L302.626 404.803V371.138H281.031L283.325 413.26L300.526 411.27Z" fill="white"/>
</mask>
<g mask="url(#mask29_5_19)">
<path d="M278.373 401.116C282.729 402.317 302.626 397.332 302.626 397.332L279.673 390.359" fill="#E84B23"/>
</g>
<path d="M242.708 432C242.708 432 241.755 415.748 262.396 417.738C283.038 419.728 281.124 403.476 281.124 403.476L302.626 404.803V426.457C302.626 429.518 300.481 432 297.835 432H242.708Z" fill="#BB393C"/>
<path d="M355.061 411.27L351.701 404.803L345.142 371.138H366.737L372.65 413.26L355.061 411.27Z" fill="#FF9763"/>
<mask id="mask30_5_19" style="mask-type:alpha" maskUnits="userSpaceOnUse" x="345" y="371" width="28" height="43">
<path fill-rule="evenodd" clip-rule="evenodd" d="M355.061 411.27L351.701 404.803L345.142 371.138H366.737L372.65 413.26L355.061 411.27Z" fill="white"/>
</mask>
<g mask="url(#mask30_5_19)">
<path d="M346.268 401.819C360.898 398.247 370.127 388.231 370.127 388.231L348.543 387.693" fill="#E84B23"/>
</g>
<path d="M416.918 432C416.918 432 414.705 415.748 394.451 417.738C374.197 419.728 372.944 403.476 372.944 403.476L351.701 404.803L355.92 426.457C356.517 429.518 359.146 432 361.792 432L416.918 432Z" fill="#BB393C"/>
<path d="M340.076 388.771C340.076 388.771 360.717 391.645 371.898 381.197L362.187 282.576L336.331 140.304L288.702 154.977L299.073 197.42L324.121 282.747L340.076 388.771Z" fill="#516DDB"/>
<mask id="mask31_5_19" style="mask-type:alpha" maskUnits="userSpaceOnUse" x="288" y="140" width="84" height="250">
<path fill-rule="evenodd" clip-rule="evenodd" d="M340.076 388.771C340.076 388.771 360.717 391.645 371.898 381.197L362.187 282.576L336.331 140.304L288.702 154.977L299.073 197.42L324.121 282.747L340.076 388.771Z" fill="white"/>
</mask>
<g mask="url(#mask31_5_19)">
<path d="M307.114 200.576C316.845 188.754 315.453 204.364 323.681 252.046C331.909 299.728 290.42 264.547 290.42 264.547" fill="#3152BA"/>
<path d="M327.791 162.914L330.348 196.325C330.666 200.479 333.918 203.564 337.623 203.224L361.385 201.044" stroke="#3152BA" stroke-width="1.21489" stroke-linecap="round" stroke-linejoin="round"/>
<g opacity="0.16">
<path fill-rule="evenodd" clip-rule="evenodd" d="M342.785 387.22L333.127 394.37L188.893 237.657L198.55 230.508L342.785 387.22V387.22Z" stroke="#3152BA" stroke-width="1.41124" stroke-linecap="round" stroke-linejoin="round"/>
<path fill-rule="evenodd" clip-rule="evenodd" d="M361.202 373.586L351.545 380.735L207.311 224.022L216.968 216.873L361.202 373.586V373.586Z" stroke="#3152BA" stroke-width="1.41124" stroke-linecap="round" stroke-linejoin="round"/>
<path fill-rule="evenodd" clip-rule="evenodd" d="M379.62 359.952L369.963 367.101L225.728 210.388L235.385 203.239L379.62 359.952V359.952Z" stroke="#3152BA" stroke-width="1.41124" stroke-linecap="round" stroke-linejoin="round"/>
<path fill-rule="evenodd" clip-rule="evenodd" d="M398.037 346.318L388.38 353.467L244.146 196.754L253.803 189.605L398.037 346.318V346.318Z" stroke="#3152BA" stroke-width="1.41124" stroke-linecap="round" stroke-linejoin="round"/>
<path fill-rule="evenodd" clip-rule="evenodd" d="M416.455 332.683L406.798 339.833L262.563 183.12L272.221 175.971L416.455 332.683V332.683Z" stroke="#3152BA" stroke-width="1.41124" stroke-linecap="round" stroke-linejoin="round"/>
<path fill-rule="evenodd" clip-rule="evenodd" d="M434.873 319.049L425.216 326.198L280.981 169.486L290.638 162.337L434.873 319.049V319.049Z" stroke="#3152BA" stroke-width="1.41124" stroke-linecap="round" stroke-linejoin="round"/>
<path fill-rule="evenodd" clip-rule="evenodd" d="M453.29 305.415L443.633 312.564L299.399 155.851L309.056 148.702L453.29 305.415V305.415Z" stroke="#3152BA" stroke-width="1.41124" stroke-linecap="round" stroke-linejoin="round"/>
<path fill-rule="evenodd" clip-rule="evenodd" d="M471.708 291.781L462.051 298.93L317.816 142.217L327.474 135.068L471.708 291.781V291.781Z" stroke="#3152BA" stroke-width="1.41124" stroke-linecap="round" stroke-linejoin="round"/>
</g>
<g opacity="0.46">
<path fill-rule="evenodd" clip-rule="evenodd" d="M179.252 265.776L169.433 255.107L350.267 121.239L360.086 131.907L179.252 265.776V265.776Z" stroke="#3152BA" stroke-width="3.00998" stroke-linecap="round" stroke-linejoin="round"/>
<path fill-rule="evenodd" clip-rule="evenodd" d="M197.978 286.122L188.159 275.453L368.993 141.585L378.812 152.253L197.978 286.122V286.122Z" stroke="#3152BA" stroke-width="3.00998" stroke-linecap="round" stroke-linejoin="round"/>
<path fill-rule="evenodd" clip-rule="evenodd" d="M216.704 306.468L206.885 295.799L387.719 161.931L397.538 172.599L216.704 306.468V306.468Z" stroke="#3152BA" stroke-width="3.00998" stroke-linecap="round" stroke-linejoin="round"/>
<path fill-rule="evenodd" clip-rule="evenodd" d="M235.43 326.814L225.611 316.145L406.445 182.277L416.264 192.945L235.43 326.814V326.814Z" stroke="#3152BA" stroke-width="3.00998" stroke-linecap="round" stroke-linejoin="round"/>
<path fill-rule="evenodd" clip-rule="evenodd" d="M254.155 347.16L244.337 336.492L425.171 202.623L434.99 213.291L254.155 347.16V347.16Z" stroke="#3152BA" stroke-width="3.00998" stroke-linecap="round" stroke-linejoin="round"/>
<path fill-rule="evenodd" clip-rule="evenodd" d="M272.882 367.506L263.063 356.838L443.897 222.969L453.716 233.638L272.882 367.506V367.506Z" stroke="#3152BA" stroke-width="3.00998" stroke-linecap="round" stroke-linejoin="round"/>
<path fill-rule="evenodd" clip-rule="evenodd" d="M291.608 387.852L281.789 377.184L462.623 243.315L472.442 253.984L291.608 387.852V387.852Z" stroke="#3152BA" stroke-width="3.00998" stroke-linecap="round" stroke-linejoin="round"/>
<path fill-rule="evenodd" clip-rule="evenodd" d="M310.334 408.198L300.515 397.53L481.349 263.661L491.168 274.33L310.334 408.198V408.198Z" stroke="#3152BA" stroke-width="3.00998" stroke-linecap="round" stroke-linejoin="round"/>
</g>
</g>
<path d="M308.84 157.375H268.273V278.574L276.799 390.07C276.799 390.07 281.001 397.857 312.443 391.058L309.987 279.43L309.163 191.788" fill="#516DDB"/>
<mask id="mask32_5_19" style="mask-type:alpha" maskUnits="userSpaceOnUse" x="268" y="157" width="45" height="237">
<path fill-rule="evenodd" clip-rule="evenodd" d="M308.84 157.375H268.273V278.574L276.799 390.07C276.799 390.07 281.001 397.857 312.443 391.058L309.987 279.43L309.163 191.788" fill="white"/>
</mask>
<g mask="url(#mask32_5_19)">
<path d="M305.012 179.328C306.603 184.153 249.209 195.09 245.057 216.466C243.324 225.392 264.047 167.615 264.047 167.615L285.825 163.662" fill="#3152BA"/>
<path d="M263.198 205.195H279.923C284.772 205.195 288.703 201.27 288.703 196.427V168.826" stroke="#3152BA" stroke-width="1.14629" stroke-linecap="round" stroke-linejoin="round"/>
<g opacity="0.16">
<path fill-rule="evenodd" clip-rule="evenodd" d="M302.843 398.111L293.185 405.26L148.951 248.547L158.608 241.398L302.843 398.111V398.111Z" stroke="#3152BA" stroke-width="1.41124" stroke-linecap="round" stroke-linejoin="round"/>
<path fill-rule="evenodd" clip-rule="evenodd" d="M321.26 384.477L311.603 391.626L167.369 234.913L177.026 227.764L321.26 384.477V384.477Z" stroke="#3152BA" stroke-width="1.41124" stroke-linecap="round" stroke-linejoin="round"/>
<path fill-rule="evenodd" clip-rule="evenodd" d="M339.678 370.843L330.021 377.992L185.786 221.279L195.444 214.13L339.678 370.843V370.843Z" stroke="#3152BA" stroke-width="1.41124" stroke-linecap="round" stroke-linejoin="round"/>
<path fill-rule="evenodd" clip-rule="evenodd" d="M358.096 357.208L348.438 364.357L204.204 207.645L213.861 200.495L358.096 357.208V357.208Z" stroke="#3152BA" stroke-width="1.41124" stroke-linecap="round" stroke-linejoin="round"/>
<path fill-rule="evenodd" clip-rule="evenodd" d="M376.513 343.574L366.856 350.723L222.621 194.01L232.279 186.861L376.513 343.574V343.574Z" stroke="#3152BA" stroke-width="1.41124" stroke-linecap="round" stroke-linejoin="round"/>
<path fill-rule="evenodd" clip-rule="evenodd" d="M394.931 329.94L385.274 337.089L241.039 180.376L250.696 173.227L394.931 329.94V329.94Z" stroke="#3152BA" stroke-width="1.41124" stroke-linecap="round" stroke-linejoin="round"/>
<path fill-rule="evenodd" clip-rule="evenodd" d="M413.348 316.306L403.691 323.455L259.457 166.742L269.114 159.593L413.348 316.306V316.306Z" stroke="#3152BA" stroke-width="1.41124" stroke-linecap="round" stroke-linejoin="round"/>
<path fill-rule="evenodd" clip-rule="evenodd" d="M431.766 302.671L422.109 309.821L277.874 153.108L287.532 145.959L431.766 302.671V302.671Z" stroke="#3152BA" stroke-width="1.41124" stroke-linecap="round" stroke-linejoin="round"/>
</g>
<g opacity="0.46">
<path fill-rule="evenodd" clip-rule="evenodd" d="M139.31 276.666L129.491 265.998L310.325 132.129L320.144 142.798L139.31 276.666V276.666Z" stroke="#3152BA" stroke-width="3.00998" stroke-linecap="round" stroke-linejoin="round"/>
<path fill-rule="evenodd" clip-rule="evenodd" d="M158.036 297.012L148.217 286.344L329.051 152.475L338.87 163.144L158.036 297.012V297.012Z" stroke="#3152BA" stroke-width="3.00998" stroke-linecap="round" stroke-linejoin="round"/>
<path fill-rule="evenodd" clip-rule="evenodd" d="M176.761 317.358L166.943 306.69L347.777 172.821L357.596 183.49L176.761 317.358V317.358Z" stroke="#3152BA" stroke-width="3.00998" stroke-linecap="round" stroke-linejoin="round"/>
<path fill-rule="evenodd" clip-rule="evenodd" d="M195.488 337.704L185.669 327.036L366.503 193.167L376.322 203.836L195.488 337.704V337.704Z" stroke="#3152BA" stroke-width="3.00998" stroke-linecap="round" stroke-linejoin="round"/>
<path fill-rule="evenodd" clip-rule="evenodd" d="M214.214 358.05L204.395 347.382L385.229 213.514L395.048 224.182L214.214 358.05V358.05Z" stroke="#3152BA" stroke-width="3.00998" stroke-linecap="round" stroke-linejoin="round"/>
<path fill-rule="evenodd" clip-rule="evenodd" d="M232.94 378.397L223.121 367.728L403.955 233.86L413.774 244.528L232.94 378.397V378.397Z" stroke="#3152BA" stroke-width="3.00998" stroke-linecap="round" stroke-linejoin="round"/>
<path fill-rule="evenodd" clip-rule="evenodd" d="M251.666 398.743L241.847 388.074L422.681 254.206L432.5 264.874L251.666 398.743V398.743Z" stroke="#3152BA" stroke-width="3.00998" stroke-linecap="round" stroke-linejoin="round"/>
<path fill-rule="evenodd" clip-rule="evenodd" d="M270.392 419.089L260.573 408.42L441.407 274.552L451.226 285.22L270.392 419.089V419.089Z" stroke="#3152BA" stroke-width="3.00998" stroke-linecap="round" stroke-linejoin="round"/>
</g>
</g>
<path d="M261.42 86.1513L266.359 65.3723C266.359 65.3723 294.909 52.1472 327.989 58.0996C327.989 58.0996 344.762 167.012 344.762 172.361C344.762 172.361 303.025 187.839 257.387 169.917C253.877 164.124 270.866 149.008 261.42 86.1513Z" fill="#FFC562"/>
<mask id="mask33_5_19" style="mask-type:alpha" maskUnits="userSpaceOnUse" x="256" y="56" width="89" height="123">
<path fill-rule="evenodd" clip-rule="evenodd" d="M261.42 86.1513L266.359 65.3723C266.359 65.3723 294.909 52.1472 327.989 58.0996C327.989 58.0996 344.762 167.012 344.762 172.361C344.762 172.361 303.025 187.839 257.387 169.917C253.877 164.124 270.866 149.008 261.42 86.1513Z" fill="white"/>
</mask>
<g mask="url(#mask33_5_19)">
<path d="M301.607 100.684C322.653 108.402 285.931 121.428 303.46 137.954L308.41 137.505C287.272 124.566 329.125 107.815 303.002 99.4635L301.607 100.684Z" fill="#97CC64"/>
<path d="M302.301 96.2096C292.825 70.6557 320.112 69.1752 306.02 95.3295L302.301 96.2096Z" fill="#F08059"/>
<path d="M304.208 98.7073C313.684 124.261 286.397 125.742 300.489 99.5875L304.208 98.7073Z" fill="#F08059"/>
<path d="M304.825 96.2262C334.587 80.8622 329.703 107.284 304.89 99.6663L304.825 96.2262Z" fill="#F08059"/>
<path d="M301.683 98.6907C271.922 114.055 276.806 87.6332 301.619 95.2506L301.683 98.6907Z" fill="#F08059"/>
<path d="M303.691 95.7041C318.035 66.7707 333.876 84.4067 306.366 97.5142L303.691 95.7041Z" fill="#F08059"/>
<path d="M302.818 99.2129C288.473 128.146 272.633 110.51 300.143 97.4027L302.818 99.2129Z" fill="#F08059"/>
<path d="M305.04 97.4702C332.784 104.676 310.036 124.405 302.456 100.525L305.04 97.4702Z" fill="#F08059"/>
<path d="M301.469 97.4467C273.725 90.2414 296.473 70.5116 304.053 94.3919L301.469 97.4467Z" fill="#F08059"/>
<ellipse rx="9.47009" ry="7.45052" transform="matrix(0.772444 -0.635083 0.635979 0.771706 303.438 97.4415)" fill="#F0F3FC"/>
<path d="M306.3 124.394C317.989 130.401 324.13 116.38 324.13 116.38C324.13 116.38 307.369 113.169 306.3 124.394Z" fill="#97CC64"/>
<ellipse cx="295.539" cy="62.1404" rx="20.4883" ry="20.2515" fill="#BB393C"/>
<ellipse cx="295.539" cy="58.5248" rx="18.6376" ry="20.2515" fill="#FF9763"/>
<path d="M266.046 101.8C281.996 83.8659 269.761 138.97 277.175 137.853L277.06 155.9C281.129 163.129 257.134 163.635 257.387 169.917C257.641 176.199 248.719 163.63 248.719 163.63L246.627 131.336" fill="#D89D35"/>
<path d="M331.559 80.3028C322.284 77.4079 340.445 115.966 318.108 120.28C295.77 124.594 330.689 155.9 330.689 155.9L318.021 180.003L344.762 124.015L343.152 106.067" fill="#D89D35"/>
</g>
<path d="M276.836 132.053L285.11 180.919C285.299 182.019 285.941 182.989 286.879 183.593C287.818 184.198 288.967 184.381 290.048 184.099L346.258 169.511C348.218 169.006 349.484 167.11 349.198 165.108L342.655 119.68C342.498 118.604 341.906 117.638 341.017 117.009C340.129 116.379 339.021 116.14 337.951 116.348L280.011 127.498C277.889 127.902 276.479 129.925 276.836 132.053Z" fill="#F0F3FC"/>
<mask id="mask34_5_19" style="mask-type:alpha" maskUnits="userSpaceOnUse" x="276" y="116" width="74" height="69">
<path fill-rule="evenodd" clip-rule="evenodd" d="M276.836 132.053L285.11 180.919C285.299 182.019 285.941 182.989 286.879 183.593C287.818 184.198 288.967 184.381 290.048 184.099L346.258 169.511C348.218 169.006 349.484 167.11 349.198 165.108L342.655 119.68C342.498 118.604 341.906 117.638 341.017 117.009C340.129 116.379 339.021 116.14 337.951 116.348L280.011 127.498C277.889 127.902 276.479 129.925 276.836 132.053Z" fill="white"/>
</mask>
<g mask="url(#mask34_5_19)">
<path d="M278.373 126.422L290.12 192.159L281.33 190.529L272.368 127.328" fill="#F0F3FC"/>
<ellipse cx="318.224" cy="148.697" rx="8.18843" ry="8.14911" fill="#D6DCF2"/>
<path d="M344.762 143.251C345.452 154.601 312.628 161.377 309.976 166.642C307.325 171.907 294.867 183.283 290.048 184.099C285.229 184.916 352.536 179.94 352.536 179.94L351.374 157.613" fill="#D6DCF2"/>
</g>
<path d="M299.37 57.923C316.75 59.7035 325.217 53.9171 325.217 53.9171C310.511 44.1247 326.108 36.5578 316.75 27.6557C307.391 18.7535 315.27 5.12825 299.37 2.95216L297.365 9.18368C302.935 26.0978 293.8 44.4584 293.8 44.4584L299.37 57.923Z" fill="#4B4D5C"/>
<path d="M280.071 63.0056L283.773 35.8901L302.768 39.1172C303.049 44.9834 303.815 54.0266 304.996 61.1225" fill="#FF9763"/>
<mask id="mask35_5_19" style="mask-type:alpha" maskUnits="userSpaceOnUse" x="280" y="35" width="25" height="29">
<path fill-rule="evenodd" clip-rule="evenodd" d="M280.071 63.0056L283.773 35.8901L302.768 39.1172C303.049 44.9834 303.815 54.0266 304.996 61.1225" fill="white"/>
</mask>
<g mask="url(#mask35_5_19)">
<path d="M280.309 45.4751C292.017 59.926 302.188 53.9375 304.996 61.1225C307.804 68.3074 304.996 39.1172 304.996 39.1172L296.454 37.9708L281.908 43.0801" fill="#E84B23"/>
</g>
<path d="M306.389 26.5429C314.522 21.5354 316.081 32.7188 304.996 39.1172L306.389 26.5429Z" fill="#FF9763"/>
<path d="M297.365 9.18344C297.365 9.18344 281.767 9.40622 288.006 24.0947C292.482 34.6346 285.948 42.0806 286.672 50.0505C287.877 50.7557 289.302 51.0609 291.014 50.8011C305.998 48.5303 307.559 35.9128 307.085 21.3072C297.497 19.1889 297.365 9.18344 297.365 9.18344Z" fill="#FF9763"/>
<mask id="mask36_5_19" style="mask-type:alpha" maskUnits="userSpaceOnUse" x="286" y="9" width="22" height="42">
<path fill-rule="evenodd" clip-rule="evenodd" d="M297.365 9.18344C297.365 9.18344 281.767 9.40622 288.006 24.0947C292.482 34.6346 285.948 42.0806 286.672 50.0505C287.877 50.7557 289.302 51.0609 291.014 50.8011C305.998 48.5303 307.559 35.9128 307.085 21.3072C297.497 19.1889 297.365 9.18344 297.365 9.18344Z" fill="white"/>
</mask>
<g mask="url(#mask36_5_19)">
<ellipse opacity="0.27" rx="5.36936" ry="4.08386" transform="matrix(0.999036 -0.0438971 0.0440008 0.999031 304.977 34.8183)" fill="#E84B23"/>
<path d="M284.998 22.7997C286.052 22.829 286.882 23.7061 286.853 24.7588L286.763 27.9778C286.734 29.0304 285.856 29.86 284.802 29.8306C283.748 29.8013 282.917 28.9242 282.947 27.8716L283.036 24.6527C283.05 24.1472 283.265 23.6679 283.633 23.3204C284.001 22.9729 284.492 22.7856 284.998 22.7997Z" fill="#190000"/>
<path d="M299.684 22.6113C300.738 22.6406 301.568 23.5177 301.539 24.5703L301.449 27.7894C301.42 28.842 300.542 29.6716 299.488 29.6423C298.434 29.613 297.604 28.7359 297.633 27.6832L297.723 24.4642C297.752 23.4116 298.63 22.582 299.684 22.6113V22.6113Z" fill="#190000"/>
<path d="M284.647 18.2941C280.721 19.3202 281.734 21.4703 284.23 20.9887C286.726 20.5071 287.212 17.6237 284.647 18.2941Z" fill="#190000"/>
<path d="M299.698 17.9666C303.561 19.2094 302.729 21.1452 300.263 20.5256C297.798 19.906 297.174 17.1546 299.698 17.9666Z" fill="#190000"/>
<path d="M294.379 30.9617C294.368 32.2509 293.267 31.7303 291.904 31.7187C290.54 31.707 289.431 32.2086 289.442 30.9195C289.453 29.6303 290.567 28.5947 291.93 28.6063C293.294 28.6179 294.39 29.6725 294.379 30.9617Z" fill="#E84B23"/>
<path d="M286.61 38.14C288.936 47.3017 297.441 42.8664 297.229 37.0942C297.213 36.7957 297.012 36.5389 296.726 36.4515C295.518 36.0676 292.031 35.3197 287.048 37.2925C286.711 37.4266 286.524 37.7878 286.61 38.14Z" fill="#C1525F"/>
<mask id="mask37_5_19" style="mask-type:alpha" maskUnits="userSpaceOnUse" x="286" y="35" width="12" height="9">
<path fill-rule="evenodd" clip-rule="evenodd" d="M286.61 38.14C288.936 47.3017 297.441 42.8664 297.229 37.0942C297.213 36.7957 297.012 36.5389 296.726 36.4515C295.518 36.0676 292.031 35.3197 287.048 37.2925C286.711 37.4266 286.524 37.7878 286.61 38.14Z" fill="white"/>
</mask>
<g mask="url(#mask37_5_19)">
<ellipse rx="4.74313" ry="4.22993" transform="matrix(0.921851 -0.387544 0.388514 0.921443 293.579 42.8289)" fill="#993443"/>
<path d="M288.143 36.5413C288.197 37.1536 288.329 37.9805 288.502 38.118C289.569 38.9654 294.311 38.1398 294.919 37.5507C295.088 37.3867 294.942 35.4102 294.942 35.4102L288.841 36.1461" fill="#F0F3FC"/>
</g>
</g>
<path d="M298.631 5.24831L299.37 2.95231C291.571 -3.9469 273.968 1.3945 271.964 17.418C269.958 33.4422 255.475 27.2103 260.6 38.1156C265.724 49.0208 254.121 54.3914 254.121 54.3914C254.121 54.3914 281.767 62.5967 292.017 59.9261C288.366 56.406 286.958 53.1876 286.672 50.0505C285.948 42.0807 292.482 34.6347 288.005 24.0948C281.767 9.40629 297.365 9.18351 297.365 9.18351C297.365 9.18351 297.496 19.189 307.084 21.3073C307.443 21.3865 307.785 21.4794 308.171 21.5353" fill="#4B4D5C"/>
<path d="M273.828 30.1583C272.408 31.1175 271.493 32.6213 271.085 34.2691C270.626 36.1228 270.793 38.0361 270.985 39.9121C271.04 40.4507 271.423 40.977 272.024 40.9501C272.54 40.9271 273.122 40.4907 273.063 39.9121C272.973 39.0317 272.884 38.1498 272.867 37.2644C272.856 36.8238 272.869 36.3831 272.904 35.9438C272.912 35.8498 272.923 35.7561 272.931 35.6621C272.946 35.5389 272.945 35.5372 272.929 35.6571C272.935 35.6103 272.942 35.5636 272.95 35.5169C272.978 35.333 273.013 35.1502 273.054 34.9688C273.129 34.6348 273.228 34.3063 273.348 33.9858C273.366 33.9384 273.385 33.8912 273.403 33.8441C273.447 33.7376 273.442 33.7503 273.387 33.8822C273.411 33.8099 273.443 33.7407 273.483 33.6758C273.56 33.5171 273.643 33.3619 273.733 33.21C273.823 33.0589 273.923 32.9159 274.022 32.7707C274.151 32.5808 273.904 32.904 274.042 32.7436C274.107 32.668 274.17 32.5912 274.237 32.5178C274.355 32.3895 274.48 32.2677 274.611 32.1528C274.664 32.1002 274.722 32.0521 274.783 32.0092C274.542 32.1553 274.83 31.9825 274.877 31.9507C275.326 31.647 275.568 31.0232 275.25 30.5306C274.961 30.0834 274.31 29.8328 273.828 30.1582L273.828 30.1583Z" fill="#373947"/>
<path d="M318.021 161.017C313.773 163.034 312.473 162.254 306.406 173.596C306.406 173.596 307.706 176.627 312.213 172.99C312.213 172.99 307.186 179.574 306.406 180.353C305.625 181.133 308.636 184.9 312.647 180.523C312.647 180.523 314.624 184.385 318.958 180.922C318.958 180.922 323.878 182.988 325.785 179.054C327.692 175.121 329.81 168.575 329.81 168.575L318.714 161.475" fill="#FF9763"/>
<mask id="mask38_5_19" style="mask-type:alpha" maskUnits="userSpaceOnUse" x="306" y="161" width="24" height="22">
<path fill-rule="evenodd" clip-rule="evenodd" d="M318.021 161.017C313.773 163.034 312.473 162.254 306.406 173.596C306.406 173.596 307.706 176.627 312.213 172.99C312.213 172.99 307.186 179.574 306.406 180.353C305.625 181.133 308.636 184.9 312.647 180.523C312.647 180.523 314.624 184.385 318.958 180.922C318.958 180.922 323.878 182.988 325.785 179.054C327.692 175.121 329.81 168.575 329.81 168.575L318.714 161.475" fill="white"/>
</mask>
<g mask="url(#mask38_5_19)">
<path d="M321.704 157.613C315.183 160.491 316.632 162.517 316.632 162.517C316.632 162.517 316.052 166.106 328.08 178.569C340.108 191.032 327.791 162.807 327.791 162.807" fill="#E84B23"/>
</g>
<path d="M329.598 78.1291C331.09 96.5672 333.126 121.354 333.45 123.294C333.97 126.411 316.027 158.305 316.027 158.305C318.368 167.969 329.84 176.184 329.84 176.184C329.84 176.184 357.634 133.683 358.415 122.774C359.195 111.865 347.098 51.2505 326.815 58.2634" fill="#FFC562"/>
<mask id="mask39_5_19" style="mask-type:alpha" maskUnits="userSpaceOnUse" x="316" y="57" width="43" height="120">
<path fill-rule="evenodd" clip-rule="evenodd" d="M329.598 78.1291C331.09 96.5672 333.126 121.354 333.45 123.294C333.97 126.411 316.027 158.305 316.027 158.305C318.368 167.969 329.84 176.184 329.84 176.184C329.84 176.184 357.634 133.683 358.415 122.774C359.195 111.865 347.098 51.2505 326.815 58.2634" fill="white"/>
</mask>
<g mask="url(#mask39_5_19)">
<path d="M346.374 175.43C329.881 175.149 352.246 157.23 336.066 149.979L332.735 151.486C350.555 155.374 325.526 177.119 345.7 176.615L346.374 175.43Z" fill="#97CC64"/>
<path d="M345.045 177.432C332.276 161.962 350.879 154.345 347.416 175.922L345.045 177.432Z" fill="#F08059"/>
<path d="M346.803 176.834C363.766 158.972 366.766 178.511 347.68 179.209L346.803 176.834Z" fill="#F08059"/>
<path d="M345.888 176.745C348.854 153.176 364.13 161.606 348.186 177.357L345.888 176.745Z" fill="#F08059"/>
<path d="M344.766 178.492C323.743 180.184 334.775 160.982 345.822 175.746L344.766 178.492Z" fill="#F08059"/>
<path d="M347.253 177.647C368.276 175.955 357.244 195.157 346.197 180.393L347.253 177.647Z" fill="#F08059"/>
<ellipse rx="6.96472" ry="5.48365" transform="matrix(0.520859 -0.853643 0.85419 0.519962 345.88 178.135)" fill="#F0F3FC"/>
<path d="M337.374 160.087C327.798 158.736 326.924 169.961 326.924 169.961C326.924 169.961 339.348 168.146 337.374 160.087Z" fill="#97CC64"/>
<ellipse cx="359.214" cy="122.122" rx="9.97452" ry="14.5619" fill="#BB393C"/>
</g>
<path d="M266.886 65.3723C247.433 67.5098 247.492 92.0457 249.573 137.76C249.573 137.76 246.968 150.279 265.994 157.613C272.942 157.613 270.779 136.54 270.779 136.54C270.779 136.54 269.536 127.19 268.727 126.411C268.092 125.798 269.918 104.815 270.729 95.8559" fill="#FFC562"/>
<mask id="mask40_5_19" style="mask-type:alpha" maskUnits="userSpaceOnUse" x="248" y="65" width="24" height="93">
<path fill-rule="evenodd" clip-rule="evenodd" d="M266.886 65.3723C247.433 67.5098 247.492 92.0457 249.573 137.76C249.573 137.76 246.968 150.279 265.994 157.613C272.942 157.613 270.779 136.54 270.779 136.54C270.779 136.54 269.536 127.19 268.727 126.411C268.092 125.798 269.918 104.815 270.729 95.8559" fill="white"/>
</mask>
<g mask="url(#mask40_5_19)">
<path d="M236.637 69.3357C258.875 66.4928 232.303 94.9623 255.485 101.554L259.67 98.8768C234.941 97.1287 264.347 62.9912 237.311 67.6103L236.637 69.3357Z" fill="#97CC64"/>
<path d="M238.033 66.3838C258.236 84.6962 234.707 98.5755 235.139 68.8775L238.033 66.3838Z" fill="#F08059"/>
<path d="M237.435 63.8979C256.753 36.5589 264.615 62.254 239.08 66.9208L237.435 63.8979Z" fill="#F08059"/>
<path d="M238.199 64.9031C266.145 58.5204 255.066 86.5036 237.317 68.8039L238.199 64.9031Z" fill="#F08059"/>
<path d="M251.746 88.2144C264.891 88.1617 263.868 72.8921 263.868 72.8921C263.868 72.8921 247.513 77.7615 251.746 88.2144Z" fill="#97CC64"/>
</g>
<path d="M293.075 144.321C293.075 144.321 293.54 144.089 293.462 142.774C290.488 140.991 285.146 140.952 281.675 141.154C284.341 139.467 286.903 137.026 284.59 136.737C281.801 136.389 278.081 137.782 268.202 139.987C266.342 141.38 263.084 149.037 263.201 152.751C263.201 152.751 277.733 156.124 280.057 155.892C281.662 155.732 283.852 154.422 285.069 153.618C285.07 153.618 285.074 153.619 285.075 153.618C285.088 153.61 285.126 153.582 285.154 153.562C285.652 153.231 285.985 152.99 285.985 152.99C285.985 152.99 285.969 152.973 285.967 152.97C287.915 151.531 292.369 148.177 292.803 147.649C293.346 146.992 293.191 145.83 293.191 145.83C293.317 145.328 293.276 144.798 293.075 144.321Z" fill="#FF9763"/>
<mask id="mask41_5_19" style="mask-type:alpha" maskUnits="userSpaceOnUse" x="263" y="136" width="31" height="20">
<path fill-rule="evenodd" clip-rule="evenodd" d="M293.075 144.321C293.075 144.321 293.54 144.089 293.462 142.774C290.488 140.991 285.146 140.952 281.675 141.154C284.341 139.467 286.903 137.026 284.59 136.737C281.801 136.389 278.081 137.782 268.202 139.987C266.342 141.38 263.084 149.037 263.201 152.751C263.201 152.751 277.733 156.124 280.057 155.892C281.662 155.732 283.852 154.422 285.069 153.618C285.07 153.618 285.074 153.619 285.075 153.618C285.088 153.61 285.126 153.582 285.154 153.562C285.652 153.231 285.985 152.99 285.985 152.99C285.985 152.99 285.969 152.973 285.967 152.97C287.915 151.531 292.369 148.177 292.803 147.649C293.346 146.992 293.191 145.83 293.191 145.83C293.317 145.328 293.276 144.798 293.075 144.321Z" fill="white"/>
</mask>
<g mask="url(#mask41_5_19)">
<path d="M267.63 139.542C272.262 136.457 266.604 148.185 270.591 155.43C274.578 162.675 253.733 149.566 253.733 149.566" fill="#E84B23"/>
</g>
<path d="M275.778 382.281C272.664 390.508 277.398 395.054 277.398 395.054C277.398 395.054 291.274 403.279 312.567 394.08C312.567 394.08 312.567 389.209 312.259 382.715C280.432 392.889 275.778 382.281 275.778 382.281Z" fill="#589BF7"/>
<path d="M372.277 373.464C376.738 381.047 372.841 386.327 372.841 386.327C372.841 386.327 361.718 396.671 339.176 391.196C339.176 391.196 338.352 386.395 337.557 379.942C370.648 384.601 372.277 373.464 372.277 373.464Z" fill="#589BF7"/>
<path d="M275.109 407.838L278.395 410.978L279.13 409.206C275.275 409.71 271.41 410.127 267.535 410.458C266.995 410.504 266.469 410.902 266.496 411.496C266.519 412.019 266.955 412.583 267.535 412.534C271.409 412.203 275.273 411.786 279.13 411.282C279.556 411.226 279.901 411.065 280.079 410.644C280.244 410.257 280.159 409.81 279.864 409.51L276.579 406.37C276.173 405.967 275.517 405.968 275.112 406.372C274.707 406.777 274.706 407.432 275.109 407.838Z" fill="#373947"/>
<path d="M378.15 402.495L373.441 407.484C373.114 407.821 373.048 408.333 373.279 408.742C373.529 409.134 373.999 409.326 374.452 409.219C377.856 408.636 381.251 408.003 384.637 407.321C385.188 407.166 385.512 406.597 385.363 406.044C385.199 405.5 384.636 405.181 384.085 405.319C380.699 406.001 377.304 406.634 373.9 407.218L374.911 408.952L379.619 403.963C379.882 403.701 379.984 403.319 379.888 402.961C379.792 402.602 379.512 402.323 379.153 402.227C378.795 402.131 378.412 402.233 378.15 402.495L378.15 402.495Z" fill="#373947"/>
<path d="M323.156 280.761C325.909 282.073 328.99 282.537 332.007 282.093C332.805 281.979 333.59 281.795 334.355 281.544C334.871 281.375 335.26 280.818 335.081 280.267C334.915 279.753 334.356 279.361 333.803 279.542C333.373 279.682 332.938 279.804 332.496 279.902C332.303 279.945 332.11 279.983 331.915 280.018C331.804 280.037 331.692 280.056 331.581 280.073C331.525 280.081 331.469 280.089 331.413 280.097C331.549 280.079 331.557 280.078 331.437 280.093C330.581 280.191 329.718 280.216 328.857 280.168C328.645 280.154 328.434 280.137 328.224 280.114C328.174 280.109 327.802 280.065 328.079 280.1C327.967 280.086 327.855 280.068 327.744 280.049C327.326 279.982 326.911 279.895 326.5 279.79C326.09 279.685 325.685 279.561 325.285 279.419C325.074 279.343 324.857 279.269 324.653 279.175C324.889 279.284 324.554 279.131 324.513 279.112C324.41 279.065 324.307 279.017 324.205 278.968C323.716 278.734 323.06 278.818 322.784 279.341C322.538 279.804 322.633 280.511 323.156 280.761H323.156Z" fill="#3152BA"/>
<path d="M305.576 279.598C305.564 279.604 305.423 279.663 305.53 279.618C305.637 279.573 305.496 279.632 305.484 279.637C305.398 279.673 305.313 279.708 305.228 279.743C305.029 279.825 304.829 279.906 304.629 279.985C304.271 280.127 303.912 280.264 303.552 280.398C302.816 280.67 302.074 280.925 301.326 281.163C299.831 281.639 298.316 282.045 296.782 282.381C295.91 282.572 295.034 282.739 294.153 282.884C293.615 282.973 293.267 283.666 293.427 284.161C293.615 284.742 294.129 284.981 294.706 284.886C297.85 284.368 300.938 283.557 303.931 282.463C304.839 282.131 305.735 281.769 306.624 281.391C307.127 281.178 307.275 280.401 306.997 279.971C306.661 279.449 306.113 279.37 305.575 279.598L305.576 279.598Z" fill="#3152BA"/>
<path d="M333.328 123.46C334.32 124.548 335.62 125.308 337.056 125.64C337.585 125.76 338.206 125.478 338.334 124.915C338.455 124.387 338.175 123.766 337.608 123.638C337.248 123.556 336.896 123.443 336.555 123.301L336.803 123.406C336.301 123.192 335.829 122.915 335.396 122.583L335.607 122.745C335.316 122.517 335.045 122.265 334.798 121.992C334.39 121.59 333.735 121.59 333.328 121.992C332.935 122.402 332.935 123.049 333.328 123.46Z" fill="#D89D35"/>
<path d="M287.568 356.142C288.22 357.862 289.727 359.115 291.539 359.443C291.809 359.507 292.094 359.47 292.339 359.338C292.577 359.199 292.75 358.972 292.82 358.705C292.89 358.439 292.851 358.156 292.712 357.918C292.578 357.682 292.354 357.509 292.091 357.441C291.761 357.39 291.439 357.3 291.131 357.173L291.379 357.277C291.042 357.134 290.725 356.949 290.434 356.728L290.644 356.89C290.355 356.667 290.095 356.408 289.869 356.12L290.032 356.331C289.818 356.054 289.641 355.751 289.503 355.431L289.608 355.678C289.596 355.649 289.584 355.62 289.572 355.59C289.492 355.333 289.322 355.113 289.094 354.97C288.856 354.831 288.573 354.792 288.306 354.862C288.04 354.932 287.812 355.104 287.673 355.342C287.528 355.583 287.49 355.873 287.568 356.142L287.568 356.142Z" fill="#3152BA"/>
</svg>
