<svg width="116" height="26" viewBox="0 0 116 26" fill="none" xmlns="http://www.w3.org/2000/svg">
<path d="M7.94873 12.0034H3.20068L3.17529 9.38819H7.16162C7.8641 9.38819 8.43962 9.29932 8.88818 9.12159C9.33675 8.93539 9.67106 8.66879 9.89111 8.32178C10.1196 7.96631 10.2339 7.53467 10.2339 7.02686C10.2339 6.45134 10.1239 5.98584 9.90381 5.63037C9.69222 5.27491 9.35791 5.01677 8.90088 4.85596C8.45231 4.69515 7.87256 4.61475 7.16162 4.61475H4.521V20.1157H0.712402V1.63135H7.16162C8.23649 1.63135 9.1971 1.73291 10.0435 1.93604C10.8983 2.13916 11.6219 2.44808 12.2144 2.8628C12.8068 3.27751 13.2596 3.80225 13.5728 4.43702C13.8859 5.06332 14.0425 5.80811 14.0425 6.67139C14.0425 7.43311 13.869 8.13558 13.522 8.77881C13.1834 9.42204 12.646 9.94678 11.9097 10.353C11.1818 10.7593 10.2297 10.9836 9.05322 11.0259L7.94873 12.0034ZM7.78369 20.1157H2.15967L3.64502 17.145H7.78369C8.45231 17.145 8.99821 17.0392 9.42139 16.8276C9.84456 16.6076 10.1577 16.3114 10.3608 15.939C10.564 15.5666 10.6655 15.1392 10.6655 14.6567C10.6655 14.1151 10.5724 13.6453 10.3862 13.2476C10.2085 12.8498 9.92074 12.5451 9.52295 12.3335C9.12516 12.1134 8.60042 12.0034 7.94873 12.0034H4.27979L4.30518 9.38819H8.87549L9.75146 10.4165C10.8771 10.3996 11.7827 10.5985 12.4683 11.0132C13.1623 11.4194 13.6659 11.9484 13.979 12.6001C14.3006 13.2518 14.4614 13.95 14.4614 14.6948C14.4614 15.8797 14.2033 16.8784 13.687 17.6909C13.1707 18.495 12.4132 19.1001 11.4146 19.5064C10.4243 19.9126 9.21403 20.1157 7.78369 20.1157Z" fill="black"/>
<path d="M16.5054 13.3872V13.1206C16.5054 12.1134 16.6493 11.1867 16.937 10.3403C17.2248 9.48552 17.6437 8.74496 18.1938 8.11866C18.744 7.49235 19.4211 7.0057 20.2251 6.6587C21.0291 6.30323 21.9517 6.12549 22.9927 6.12549C24.0337 6.12549 24.9604 6.30323 25.7729 6.6587C26.5854 7.0057 27.2668 7.49235 27.8169 8.11866C28.3755 8.74496 28.7987 9.48552 29.0864 10.3403C29.3742 11.1867 29.5181 12.1134 29.5181 13.1206V13.3872C29.5181 14.3859 29.3742 15.3127 29.0864 16.1675C28.7987 17.0138 28.3755 17.7544 27.8169 18.3892C27.2668 19.0155 26.5897 19.5021 25.7856 19.8491C24.9816 20.1961 24.0591 20.3696 23.0181 20.3696C21.9771 20.3696 21.0503 20.1961 20.2378 19.8491C19.4338 19.5021 18.7524 19.0155 18.1938 18.3892C17.6437 17.7544 17.2248 17.0138 16.937 16.1675C16.6493 15.3127 16.5054 14.3859 16.5054 13.3872ZM20.1616 13.1206V13.3872C20.1616 13.9627 20.2124 14.5002 20.314 14.9995C20.4155 15.4989 20.5763 15.939 20.7964 16.3198C21.0249 16.6922 21.3211 16.9842 21.6851 17.1958C22.049 17.4074 22.4933 17.5132 23.0181 17.5132C23.5259 17.5132 23.9618 17.4074 24.3257 17.1958C24.6896 16.9842 24.9816 16.6922 25.2017 16.3198C25.4217 15.939 25.5825 15.4989 25.6841 14.9995C25.7941 14.5002 25.8491 13.9627 25.8491 13.3872V13.1206C25.8491 12.562 25.7941 12.0373 25.6841 11.5464C25.5825 11.047 25.4175 10.6069 25.189 10.2261C24.9689 9.83675 24.6769 9.53207 24.313 9.31202C23.9491 9.09196 23.509 8.98194 22.9927 8.98194C22.4764 8.98194 22.0363 9.09196 21.6724 9.31202C21.3169 9.53207 21.0249 9.83675 20.7964 10.2261C20.5763 10.6069 20.4155 11.047 20.314 11.5464C20.2124 12.0373 20.1616 12.562 20.1616 13.1206Z" fill="black"/>
<path d="M31.1812 13.3872V13.1206C31.1812 12.1134 31.325 11.1867 31.6128 10.3403C31.9006 9.48552 32.3195 8.74496 32.8696 8.11866C33.4198 7.49235 34.0968 7.0057 34.9009 6.6587C35.7049 6.30323 36.6274 6.12549 37.6685 6.12549C38.7095 6.12549 39.6362 6.30323 40.4487 6.6587C41.2612 7.0057 41.9425 7.49235 42.4927 8.11866C43.0513 8.74496 43.4744 9.48552 43.7622 10.3403C44.05 11.1867 44.1938 12.1134 44.1938 13.1206V13.3872C44.1938 14.3859 44.05 15.3127 43.7622 16.1675C43.4744 17.0138 43.0513 17.7544 42.4927 18.3892C41.9425 19.0155 41.2655 19.5021 40.4614 19.8491C39.6574 20.1961 38.7349 20.3696 37.6938 20.3696C36.6528 20.3696 35.7261 20.1961 34.9136 19.8491C34.1095 19.5021 33.4282 19.0155 32.8696 18.3892C32.3195 17.7544 31.9006 17.0138 31.6128 16.1675C31.325 15.3127 31.1812 14.3859 31.1812 13.3872ZM34.8374 13.1206V13.3872C34.8374 13.9627 34.8882 14.5002 34.9897 14.9995C35.0913 15.4989 35.2521 15.939 35.4722 16.3198C35.7007 16.6922 35.9969 16.9842 36.3608 17.1958C36.7248 17.4074 37.1691 17.5132 37.6938 17.5132C38.2017 17.5132 38.6375 17.4074 39.0015 17.1958C39.3654 16.9842 39.6574 16.6922 39.8774 16.3198C40.0975 15.939 40.2583 15.4989 40.3599 14.9995C40.4699 14.5002 40.5249 13.9627 40.5249 13.3872V13.1206C40.5249 12.562 40.4699 12.0373 40.3599 11.5464C40.2583 11.047 40.0933 10.6069 39.8647 10.2261C39.6447 9.83675 39.3527 9.53207 38.9888 9.31202C38.6248 9.09196 38.1847 8.98194 37.6685 8.98194C37.1522 8.98194 36.7121 9.09196 36.3481 9.31202C35.9927 9.53207 35.7007 9.83675 35.4722 10.2261C35.2521 10.6069 35.0913 11.047 34.9897 11.5464C34.8882 12.0373 34.8374 12.562 34.8374 13.1206Z" fill="black"/>
<path d="M50.0972 0.603031V20.1157H46.4409V0.603031H50.0972ZM58.7554 6.3794L52.7886 13.1841L49.5894 16.4214L48.2563 13.7808L50.7954 10.5562L54.3628 6.3794H58.7554ZM54.9595 20.1157L50.897 13.7681L53.4233 11.5591L59.1743 20.1157H54.9595Z" fill="black"/>
<path d="M67.7563 16.3198C67.7563 16.0575 67.6802 15.8205 67.5278 15.6089C67.3755 15.3973 67.092 15.2026 66.6772 15.0249C66.271 14.8387 65.6828 14.6694 64.9126 14.5171C64.2186 14.3647 63.5711 14.1743 62.9702 13.9458C62.3778 13.7088 61.8615 13.4253 61.4214 13.0952C60.9897 12.7651 60.6512 12.3758 60.4058 11.9272C60.1603 11.4702 60.0376 10.9497 60.0376 10.3657C60.0376 9.79021 60.1603 9.24854 60.4058 8.74073C60.6597 8.23291 61.0194 7.78435 61.4849 7.39502C61.9588 6.99724 62.5343 6.68832 63.2114 6.46827C63.897 6.23975 64.6672 6.12549 65.522 6.12549C66.7153 6.12549 67.7394 6.31592 68.5942 6.69678C69.4575 7.07764 70.1177 7.60238 70.5747 8.271C71.0402 8.93116 71.2729 9.68441 71.2729 10.5308H67.6167C67.6167 10.1753 67.5405 9.85791 67.3882 9.57862C67.2443 9.29086 67.0158 9.06657 66.7026 8.90577C66.3979 8.7365 66.0002 8.65186 65.5093 8.65186C65.103 8.65186 64.7518 8.7238 64.4556 8.86768C64.1593 9.0031 63.9308 9.18929 63.77 9.42627C63.6177 9.65479 63.5415 9.9087 63.5415 10.188C63.5415 10.3996 63.5838 10.59 63.6685 10.7593C63.7616 10.9201 63.9097 11.0682 64.1128 11.2036C64.3159 11.339 64.5783 11.466 64.8999 11.5845C65.23 11.6945 65.6362 11.7961 66.1187 11.8892C67.1089 12.0923 67.9933 12.3589 68.772 12.689C69.5506 13.0106 70.1685 13.4507 70.6255 14.0093C71.0825 14.5594 71.311 15.283 71.311 16.1802C71.311 16.7896 71.1756 17.3481 70.9048 17.856C70.6339 18.3638 70.2446 18.8081 69.7368 19.189C69.229 19.5614 68.6196 19.8534 67.9087 20.0649C67.2062 20.2681 66.4149 20.3696 65.5347 20.3696C64.2567 20.3696 63.1733 20.1411 62.2847 19.6841C61.4045 19.2271 60.7358 18.6473 60.2788 17.9448C59.8302 17.2339 59.606 16.506 59.606 15.7612H63.0718C63.0887 16.2606 63.2157 16.6626 63.4526 16.9673C63.6981 17.272 64.007 17.492 64.3794 17.6274C64.7603 17.7629 65.1707 17.8306 65.6108 17.8306C66.0848 17.8306 66.4784 17.7671 66.7915 17.6401C67.1047 17.5047 67.3416 17.327 67.5024 17.1069C67.6717 16.8784 67.7563 16.6161 67.7563 16.3198Z" fill="black"/>
<path d="M77.2524 0.615726V20.1157H73.5962V0.615726H77.2524ZM76.7319 12.7651H75.729C75.7375 11.8088 75.8644 10.9286 76.1099 10.1245C76.3553 9.31202 76.7065 8.60954 77.1636 8.01709C77.6206 7.41618 78.1665 6.95069 78.8013 6.62061C79.4445 6.29053 80.1554 6.12549 80.9341 6.12549C81.6112 6.12549 82.2248 6.22282 82.7749 6.41748C83.3335 6.60368 83.8117 6.90837 84.2095 7.33155C84.6157 7.74626 84.9289 8.29216 85.1489 8.96924C85.369 9.64633 85.479 10.4673 85.479 11.4321V20.1157H81.7974V11.4067C81.7974 10.7974 81.7085 10.3192 81.5308 9.97217C81.3615 9.6167 81.1118 9.36703 80.7817 9.22315C80.4601 9.0708 80.0623 8.99463 79.5884 8.99463C79.0636 8.99463 78.6151 9.09196 78.2427 9.28662C77.8787 9.48129 77.5868 9.75212 77.3667 10.0991C77.1466 10.4377 76.9858 10.8355 76.8843 11.2925C76.7827 11.7495 76.7319 12.2404 76.7319 12.7651Z" fill="black"/>
<path d="M106.591 9.02002V25.397H102.935V6.3794H106.325L106.591 9.02002ZM115.288 13.0952V13.3618C115.288 14.3605 115.169 15.2873 114.932 16.1421C114.704 16.9969 114.365 17.7417 113.917 18.3765C113.468 19.0028 112.909 19.4937 112.241 19.8491C111.581 20.1961 110.819 20.3696 109.956 20.3696C109.118 20.3696 108.39 20.2004 107.772 19.8618C107.154 19.5233 106.634 19.0493 106.21 18.4399C105.796 17.8221 105.461 17.1069 105.208 16.2944C104.954 15.4819 104.759 14.6102 104.624 13.6792V12.981C104.759 11.9823 104.954 11.0682 105.208 10.2388C105.461 9.40088 105.796 8.67725 106.21 8.06787C106.634 7.45004 107.15 6.97185 107.759 6.6333C108.377 6.29476 109.101 6.12549 109.93 6.12549C110.802 6.12549 111.568 6.29053 112.228 6.62061C112.897 6.95069 113.455 7.42465 113.904 8.04248C114.361 8.66032 114.704 9.39665 114.932 10.2515C115.169 11.1063 115.288 12.0542 115.288 13.0952ZM111.619 13.3618V13.0952C111.619 12.5112 111.568 11.9738 111.466 11.4829C111.373 10.9836 111.221 10.5477 111.009 10.1753C110.806 9.8029 110.535 9.51514 110.197 9.31202C109.867 9.10043 109.465 8.99463 108.991 8.99463C108.491 8.99463 108.064 9.07504 107.708 9.23584C107.361 9.39665 107.078 9.6294 106.858 9.93409C106.638 10.2388 106.473 10.6027 106.363 11.0259C106.253 11.4491 106.185 11.9272 106.16 12.4605V14.2251C106.202 14.8514 106.32 15.4142 106.515 15.9136C106.71 16.4045 107.01 16.7938 107.417 17.0815C107.823 17.3693 108.356 17.5132 109.016 17.5132C109.499 17.5132 109.905 17.4074 110.235 17.1958C110.565 16.9758 110.832 16.6753 111.035 16.2944C111.246 15.9136 111.394 15.4735 111.479 14.9741C111.572 14.4748 111.619 13.9373 111.619 13.3618Z" fill="black"/>
<g clip-path="url(#clip0_3_14)">
<path d="M88.3776 0.317204C91.7245 0.317204 94.9343 1.65346 97.301 4.03201C99.6676 6.41057 100.997 9.63657 100.997 13.0004C100.997 16.3641 99.6676 19.5901 97.301 21.9687C94.9343 24.3473 91.7245 25.6835 88.3776 25.6835V0.317204Z" fill="white"/>
<path d="M88.3776 0.317204C91.7245 0.317204 94.9343 1.65346 97.301 4.03201C99.6676 6.41057 100.997 9.63657 100.997 13.0004C100.997 16.3641 99.6676 19.5901 97.301 21.9687C94.9343 24.3473 91.7245 25.6835 88.3776 25.6835V0.317204Z" stroke="#231B3B" stroke-width="0.5" stroke-miterlimit="10"/>
<path d="M88.3776 3.48782C90.8878 3.48782 93.2953 4.49003 95.0702 6.27398C96.8452 8.05792 97.8424 10.4775 97.8424 13.0004C97.8424 15.5232 96.8452 17.9428 95.0702 19.7267C93.2953 21.5107 90.8878 22.5129 88.3776 22.5129V3.48782Z" fill="#0039A7"/>
<path d="M88.3776 3.48782C90.8878 3.48782 93.2953 4.49003 95.0702 6.27398C96.8452 8.05792 97.8424 10.4775 97.8424 13.0004C97.8424 15.5232 96.8452 17.9428 95.0702 19.7267C93.2953 21.5107 90.8878 22.5129 88.3776 22.5129V3.48782Z" stroke="#231B3B" stroke-width="0.5" stroke-miterlimit="10"/>
<path d="M88.3776 6.65914C90.051 6.65914 91.6558 7.32723 92.839 8.51644C94.0223 9.70565 94.687 11.3186 94.687 13.0004C94.687 14.6822 94.0223 16.2951 92.839 17.4843C91.6558 18.6735 90.051 19.3416 88.3776 19.3416V6.65914Z" fill="#FFE029"/>
<path d="M88.3776 6.65914C90.051 6.65914 91.6558 7.32723 92.839 8.51644C94.0223 9.70565 94.687 11.3186 94.687 13.0004C94.687 14.6822 94.0223 16.2951 92.839 17.4843C91.6558 18.6735 90.051 19.3416 88.3776 19.3416V6.65914Z" stroke="#231B3B" stroke-width="0.5" stroke-miterlimit="10"/>
<path d="M88.3776 9.82975C89.2143 9.82975 90.0167 10.1638 90.6083 10.7584C91.1999 11.353 91.5323 12.1595 91.5323 13.0004C91.5323 13.8413 91.1999 14.6477 90.6083 15.2423C90.0167 15.8369 89.2143 16.171 88.3776 16.171V9.82975Z" fill="#F62C72"/>
<path d="M88.3776 9.82975C89.2143 9.82975 90.0167 10.1638 90.6083 10.7584C91.1999 11.353 91.5323 12.1595 91.5323 13.0004C91.5323 13.8413 91.1999 14.6477 90.6083 15.2423C90.0167 15.8369 89.2143 16.171 88.3776 16.171V9.82975Z" stroke="#231B3B" stroke-width="0.5" stroke-miterlimit="10"/>
</g>
<defs>
<clipPath id="clip0_3_14">
<rect width="13.25" height="26" fill="white" transform="translate(88.062)"/>
</clipPath>
</defs>
</svg>
