<svg width="17" height="15" viewBox="0 0 17 15" fill="none" xmlns="http://www.w3.org/2000/svg">
<path d="M9.14868 0.893605C8.85965 0.395492 8.14032 0.39549 7.85128 0.893605L5.81574 4.40159C5.67296 4.64765 5.42618 4.81557 5.14488 4.85805L1.33014 5.43422C0.689432 5.531 0.464687 6.33995 0.963666 6.75335L3.80548 9.10777C4.06854 9.32571 4.19223 9.66948 4.12833 10.0051L3.38495 13.9089C3.26744 14.526 3.91528 15.0055 4.47114 14.7128L8.0632 12.8215C8.3366 12.6775 8.66337 12.6775 8.93677 12.8215L12.5288 14.7128C13.0847 15.0055 13.7325 14.526 13.615 13.9089L12.8716 10.0051C12.8077 9.66948 12.9314 9.32571 13.1945 9.10777L16.0363 6.75335C16.5353 6.33995 16.3105 5.531 15.6698 5.43422L11.8551 4.85805C11.5738 4.81557 11.327 4.64765 11.1842 4.40159L9.14868 0.893605Z" fill="#FFC562"/>
</svg>
